<svg class="thumb" width="1000" height="1000" viewBox="0,0,600,600" xmlns="http://www.w3.org/2000/svg" xmlns:inkscape="http://www.inkscape.org/namespaces/inkscape" xmlns:sodipodi="http://sodipodi.sourceforge.net/DTD/sodipodi-0.dtd" xmlns:xlink="http://www.w3.org/1999/xlink" xmlns:ns1="http://www.inkscape.org/namespaces/inkscape" xmlns:sketch="http://www.bohemiancoding.com/sketch/ns">
  <defs></defs>
  <g transform="matrix(1.4166,0,0,1.4166,-82.477,33.6828)">
    <g transform="matrix(-3.2976,0,0,3.2976,341.2507,101.9935)">
      <svg width="42.00000202891049" height="37.49010000000044" viewBox="-80.0000050289105,1162.8721,42.00000202891049,37.49010000000044">
        <defs>
          <linearGradient x1="0" y1="0.5" x2="1" y2="0.5" id="linearGradientSjw521k8h4">
            <stop offset="0%" stop-color="#000000"></stop>
            <stop offset="100%" stop-color="#000000"></stop>
          </linearGradient>
        </defs>
        <g></g>
        <g></g>
        <g></g>
        <g></g>
        <g>
          <path style="text-indent: 0px; text-transform: none; direction: ltr; baseline-shift: baseline; color: rgb(0, 0, 0);" d="m -58.994599,1167.8721 c -1.926414,0 -3.498817,1.5724 -3.498817,3.4988 0,1.9264 1.572384,3.4988 3.498817,3.4988 1.926434,0 3.498818,-1.5724 3.498818,-3.4988 0,-1.9264 -1.572404,-3.4988 -3.498818,-3.4988 z m 0,0.9997 c 1.386175,0 2.499156,1.1129 2.499156,2.4991 0,1.3861 -1.113001,2.4992 -2.499156,2.4992 -1.386154,0 -2.499155,-1.1131 -2.499155,-2.4992 0,-1.3862 1.112981,-2.4991 2.499155,-2.4991 z m -7.091353,4.6546 c -0.09638,0.026 -0.184691,0.081 -0.249915,0.1562 l -3.655015,3.78 0,-0.5935 c -2.6e-5,-0.2618 -0.238127,-0.4999 -0.499831,-0.4999 l -1.999324,0 c -0.05164,-0.01 -0.10456,-0.01 -0.156198,0 -0.206453,0.068 -0.354409,0.2829 -0.343633,0.4999 l 0,3.7174 -1.843127,1.9057 c -0.213032,0.1804 -0.224176,0.5496 -0.02242,0.7426 0.20176,0.193 0.570097,0.1655 0.740923,-0.055 l 1.12462,-1.1558 0,10.3402 -1.999325,0 0,0.9997 16.994257,0 0,-0.9997 -0.999663,0 0,-10.3402 1.12462,1.1558 c 0.170827,0.2209 0.539163,0.2484 0.740923,0.055 0.20176,-0.193 0.190616,-0.5622 -0.02242,-0.7426 l -8.465888,-8.8096 c -0.115135,-0.128 -0.299647,-0.1895 -0.468592,-0.1562 z m 0.09372,1.2184 5.997973,6.2166 0,11.4024 -3.998648,0 0,-6.4978 c -2.6e-5,-0.2617 -0.238128,-0.4998 -0.499831,-0.4998 l -2.998987,0 c -0.05164,-0.01 -0.104559,-0.01 -0.156197,0 -0.206454,0.068 -0.35441,0.2828 -0.343634,0.4998 l 0,6.4978 -3.998648,0 0,-11.4024 1.749408,-1.8431 c 0.07774,-0.044 0.143231,-0.1097 0.187437,-0.1874 z m 19.493412,0.6248 c -1.652793,0 -2.998986,1.3461 -2.998986,2.9989 l 0,7.4975 c 0,1.4785 1.088902,2.6928 2.499155,2.9365 l 0,3.5613 -0.999662,0 0,0.9997 4.99831,0 0,-0.9997 -2.998986,0 0,-3.5613 c 1.410253,-0.2437 2.499155,-1.458 2.499155,-2.9365 l 0,-7.4975 c 0,-1.6528 -1.346194,-2.9989 -2.998986,-2.9989 z m -2.998986,10.4964 c 0,-2.2038 -1.794789,-4.0299 -3.998649,-4.0299 -2.203861,0 -3.998648,1.8261 -3.998648,4.0299 0,2.0345 1.529885,3.7203 3.498817,3.9674 l 0,2.5304 -0.999662,0 0,0.9997 0.999662,0 0.999662,0 1.999324,0 0,-0.9997 -1.999324,0 0,-2.5304 c 1.968933,-0.2471 3.498818,-1.9329 3.498818,-3.9674 z m 2.998986,-9.4968 c 1.116272,0 1.999324,0.8831 1.999324,1.9993 l 0,1.0934 c -0.05615,-0.2178 -0.274979,-0.3819 -0.499831,-0.3748 -0.128921,0.01 -0.255028,0.062 -0.343634,0.1561 l -0.656028,0.6561 0,-1.4995 -0.999662,0 0,1.4995 -0.656028,-0.6561 c -0.08861,-0.094 -0.214713,-0.1511 -0.343634,-0.1561 -0.224852,-0.01 -0.443685,0.157 -0.499831,0.3748 l 0,-1.0934 c 0,-1.1162 0.883051,-1.9993 1.999324,-1.9993 z m -25.491384,0.9997 0.999662,0 0,1.1246 -0.999662,1.0621 z m 5.997972,0 c -1.374315,0 -2.499155,1.1248 -2.499155,2.4991 0,1.3744 1.12484,2.4992 2.499155,2.4992 1.374317,0 2.499156,-1.1248 2.499156,-2.4992 0,-1.3743 -1.124839,-2.4991 -2.499156,-2.4991 z m 0,0.9996 c 0.834078,0 1.499494,0.6654 1.499494,1.4995 0,0.8342 -0.665416,1.4995 -1.499494,1.4995 -0.834077,0 -1.499493,-0.6653 -1.499493,-1.4995 0,-0.8341 0.665416,-1.4995 1.499493,-1.4995 z m 21.492736,1.3433 0,2.7491 c -0.05615,-0.2178 -0.274979,-0.382 -0.499831,-0.3749 -0.128921,0.01 -0.255028,0.062 -0.343634,0.1562 l -0.656028,0.6561 0,-1.5308 c 0.0013,-0.021 0.0013,-0.042 0,-0.062 l 1.343296,-1.3433 c 0.07544,-0.065 0.130622,-0.1536 0.156197,-0.25 z m -3.998648,0.031 c 0.03094,0.085 0.08559,0.1617 0.156197,0.2187 l 1.312056,1.312 c 0.0089,0.021 0.01938,0.042 0.03124,0.062 l 0,1.562 -0.656028,-0.6561 c -0.08861,-0.094 -0.214713,-0.1511 -0.343634,-0.1562 -0.224852,-0.01 -0.443685,0.1571 -0.499831,0.3749 z m 3.998648,2.9677 0,2.7491 c -0.05615,-0.2178 -0.274979,-0.382 -0.499831,-0.3749 -0.128921,0.01 -0.255028,0.062 -0.343634,0.1562 l -0.656028,0.656 0,-1.5307 c 0.0013,-0.021 0.0013,-0.042 0,-0.062 l 1.343296,-1.3433 c 0.07544,-0.065 0.130622,-0.1535 0.156197,-0.2499 z m -3.998648,0.031 c 0.03094,0.085 0.08559,0.1617 0.156197,0.2186 l 1.312056,1.3121 c 0.0089,0.021 0.01938,0.042 0.03124,0.062 l 0,1.5619 -0.656028,-0.656 c -0.08861,-0.094 -0.214713,-0.1511 -0.343634,-0.1562 -0.224852,-0.01 -0.443685,0.1571 -0.499831,0.3749 z m -4.998311,0.094 c 1.663615,0 2.998986,1.3666 2.998986,3.0302 0,1.4882 -1.082982,2.6946 -2.499155,2.9365 l 0,-0.2499 1.343296,-1.3433 c 0.331946,-0.2804 0.02233,-0.9473 -0.406113,-0.8747 -0.107395,0.019 -0.207865,0.075 -0.281155,0.1562 l -0.656028,0.656 0,-1.7806 -0.999662,0 0,0.781 -1.155859,-1.1559 c -0.08861,-0.094 -0.214713,-0.1511 -0.343634,-0.1562 -0.407313,-0.011 -0.649292,0.6053 -0.343634,0.8747 l 1.843127,1.8431 0,0.6561 0,0.3748 0,0.2187 c -1.416173,-0.2419 -2.499155,-1.4483 -2.499155,-2.9365 0,-1.6636 1.33537,-3.0302 2.998986,-3.0302 z m 8.996959,2.874 0,0.1562 c 0,0.9418 -0.632518,1.7174 -1.499493,1.9369 l 0,-0.4374 c 0.0013,-0.021 0.0013,-0.042 0,-0.062 l 1.343296,-1.3433 c 0.07544,-0.065 0.130622,-0.1535 0.156197,-0.2499 z m -3.998648,0.031 c 0.03094,0.085 0.08559,0.1617 0.156197,0.2186 l 1.312056,1.3121 c 0.0089,0.022 0.01938,0.042 0.03124,0.062 l 0,0.4686 c -0.866975,-0.2195 -1.499493,-0.9951 -1.499493,-1.9369 z m -18.49375,0.6247 1.999325,0 0,5.998 -1.999325,0 z m 9.996622,5.998 0,0.9997 0.999662,0 0,-0.9997 z m 6.997635,0 0,0.9997 0.999662,0 0,-0.9997 z m -13.99527,1.9993 0,0.9997 0.999662,0 0,-0.9997 z m 1.999324,0 0,0.9997 0.999662,0 0,-0.9997 z m 1.999324,0 0,0.9997 7.997297,0 0,-0.9997 z" fill="url('#linearGradientSjw521k8h4')" fill-opacity="1" stroke="none" marker="none" visibility="visible" display="inline" overflow="visible"></path>
        </g>
      </svg>
    </g>
    <g transform="matrix(6.6877,0,0,6.6877,45.9617,0.7441)">
      <svg width="67" height="56" viewBox="6.5,12,67,56">
        <defs>
          <linearGradient x1="0" y1="0.5" x2="1" y2="0.5" id="linearGradientSjw521k8ha">
            <stop offset="0%" stop-color="#000000"></stop>
            <stop offset="100%" stop-color="#000000"></stop>
          </linearGradient>
        </defs>
        <g></g>
        <g></g>
        <g></g>
        <g></g>
        <g>
          <path fill="url('#linearGradientSjw521k8ha')" d="M40,63c-15.7,0-28.5-10.3-28.5-23S24.3,17,40,17s28.5,10.3,28.5,23S55.7,63,40,63z M40,19   c-14.6,0-26.5,9.4-26.5,21S25.4,61,40,61s26.5-9.4,26.5-21S54.6,19,40,19z" stroke="none" style=""></path>
        </g>
      </svg>
    </g>
    <g transform="matrix(0.8469,0,0,0.7816,155.9353,231.0112)">
      <svg width="71.74000000000001" height="23.27765759384493" viewBox="14.544999999999995,45.489738932210905,71.74000000000001,23.27765759384493">
        <defs>
          <linearGradient x1="0" y1="0.5" x2="1" y2="0.5" id="linearGradientSjw521k8hg">
            <stop offset="0%" stop-color="#000000"></stop>
            <stop offset="100%" stop-color="#000000"></stop>
          </linearGradient>
        </defs>
        <g></g>
        <g></g>
        <g></g>
        <g></g>
        <g>
          <path d="M81.285,59.776c0,0-0.265,0.066-0.76,0.191c-0.247,0.062-0.553,0.138-0.912,0.226c-0.367,0.053-0.798,0.103-1.288,0.15  c-0.495,0.077-1.028,0.042-1.624,0.041c-0.596,0.033-1.235-0.088-1.932-0.213c-0.177-0.03-0.354-0.06-0.531-0.092  c-0.184-0.062-0.368-0.128-0.557-0.192c-0.168-0.064-0.324-0.102-0.512-0.193c-0.191-0.106-0.388-0.216-0.586-0.326  c-0.78-0.462-1.382-1.064-1.968-1.694c-0.587-0.64-1.106-1.268-1.679-1.836l-0.428-0.4l-0.053-0.051l-0.025-0.027l-0.012-0.012  c0.027,0.025-0.087-0.078,0.062,0.057l-0.134-0.101l-0.27-0.205c-0.356-0.259-0.731-0.577-1.088-0.8  c-0.33-0.14-0.647-0.286-0.959-0.45c-0.357-0.088-0.717-0.179-1.081-0.267c-0.377,0.021-0.736-0.037-1.118-0.001  c-0.386,0.102-0.76,0.063-1.161,0.243c-1.595,0.475-3.214,1.606-4.928,2.78c-1.72,1.186-3.497,2.535-5.638,3.618  c-0.526,0.272-1.132,0.47-1.696,0.701c-0.629,0.184-1.179,0.329-1.915,0.472c-0.56,0.058-0.997,0.156-1.697,0.166  c-0.656,0.044-1.278,0.018-1.884-0.037c-2.448-0.161-4.822-1.37-6.465-2.551c-0.481-0.323-0.722-0.458-1.052-0.6  c-0.168-0.068-0.333-0.142-0.497-0.173c-0.164-0.061-0.326-0.094-0.489-0.11c-0.635-0.095-1.366,0.023-2.026,0.349  c-0.85,0.381-1.701,0.751-2.311,1.184c-0.338,0.206-0.674,0.408-1.003,0.606c-0.344,0.236-0.683,0.469-1.013,0.696  c-0.652,0.453-1.328,0.904-1.966,1.31l-0.473,0.299l-0.116,0.074l-0.102,0.065l-0.06,0.031l-0.236,0.117  c-0.321,0.155-0.594,0.317-0.979,0.44c-1.414,0.538-2.63,0.54-3.612,0.481c-0.979-0.087-1.713-0.272-2.209-0.395  c-0.493-0.135-0.757-0.206-0.757-0.206s0.271,0.004,0.783,0.012c0.506,0.005,1.253-0.036,2.167-0.132  c0.897-0.121,2.01-0.419,2.993-0.991c0.235-0.109,0.52-0.34,0.8-0.544l0.215-0.156l0.052-0.04c-0.072,0.043,0.008-0.014,0.004-0.015  l0.098-0.09l0.399-0.36c0.544-0.488,1.118-1,1.715-1.535c1.105-1.052,2.825-2.473,4.381-3.259c0.956-0.575,2.15-0.953,3.46-0.916  c0.648,0.002,1.292,0.149,1.882,0.362c0.3,0.086,0.601,0.244,0.901,0.384c0.341,0.156,0.47,0.261,0.717,0.394l0.667,0.385  c0.198,0.107,0.389,0.239,0.594,0.329c0.411,0.181,0.812,0.397,1.237,0.522c0.836,0.311,1.707,0.466,2.597,0.548  c0.455,0.031,0.899,0.042,1.313,0.005c0.374,0.013,0.994-0.113,1.502-0.177c0.312-0.087,0.812-0.214,1.213-0.339  c0.427-0.195,0.854-0.333,1.284-0.562c1.742-0.83,3.461-2.056,5.261-3.252c1.798-1.195,3.754-2.38,6.089-2.968  c0.551-0.191,1.211-0.174,1.801-0.252c0.608-0.029,1.233,0.097,1.827,0.167c0.573,0.185,1.136,0.377,1.676,0.597  c0.517,0.306,1.02,0.62,1.496,0.936c0.396,0.316,0.695,0.628,1.038,0.934l0.248,0.23l0.123,0.113  c0.161,0.145,0.054,0.05,0.094,0.087l0.016,0.018l0.031,0.037l0.059,0.069l0.472,0.566c0.571,0.754,1.035,1.499,1.472,2.12  c0.428,0.628,0.893,1.176,1.332,1.555l0.317,0.283c0.121,0.096,0.304,0.177,0.449,0.266c0.126,0.071,0.365,0.199,0.392,0.223  c0.15,0.052,0.298,0.104,0.439,0.154c0.579,0.211,1.129,0.409,1.679,0.5c0.538,0.113,1.041,0.256,1.493,0.277  c0.465,0.052,0.876,0.099,1.235,0.14c0.37,0.004,0.685,0.006,0.939,0.009C81.011,59.776,81.285,59.776,81.285,59.776z" stroke="none" fill="url('#linearGradientSjw521k8hg')" style=""></path>
        </g>
      </svg>
    </g>
    <g transform="matrix(1.2446,0,0,0.7816,265.2197,213.5285)">
      <svg width="35.542" height="14.382738259576463" viewBox="42.101,36.45060859849064,35.542,14.382738259576463">
        <defs>
          <linearGradient x1="0" y1="0.5" x2="1" y2="0.5" id="linearGradientSjw521k8hm">
            <stop offset="0%" stop-color="#000000"></stop>
            <stop offset="100%" stop-color="#000000"></stop>
          </linearGradient>
        </defs>
        <g></g>
        <g></g>
        <g></g>
        <g></g>
        <g>
          <path d="M72.643,45.691c0,0-0.111,0.019-0.318,0.054c-0.104,0.018-0.232,0.039-0.383,0.063c-0.152,0.009-0.33,0.016-0.533,0.021  c-0.205,0.016-0.424-0.016-0.668-0.034c-0.244-0.005-0.502-0.074-0.783-0.146c-0.072-0.018-0.143-0.035-0.217-0.054  c-0.07-0.031-0.145-0.062-0.219-0.095c-0.066-0.032-0.131-0.052-0.205-0.095c-0.072-0.049-0.15-0.1-0.227-0.15  c-0.301-0.208-0.529-0.472-0.75-0.748c-0.431-0.563-0.816-1.093-1.37-1.483c-0.546-0.397-1.17-0.526-1.851-0.367  c-0.687,0.15-1.394,0.58-2.133,1.02c-0.742,0.443-1.509,0.951-2.412,1.335c-0.463,0.182-0.926,0.332-1.496,0.38  c-0.23,0.008-0.418,0.038-0.699,0.023c-0.13-0.004-0.264-0.005-0.39-0.015l-0.373-0.049c-0.991-0.131-1.921-0.677-2.567-1.206  c-0.59-0.463-1.092-0.568-1.748-0.33c-0.088,0.031-0.188,0.06-0.266,0.092l-0.225,0.098c-0.148,0.056-0.306,0.155-0.458,0.223  c-0.305,0.162-0.598,0.335-0.883,0.509c-0.286,0.173-0.561,0.348-0.837,0.498c-0.069,0.037-0.138,0.074-0.205,0.11l-0.05,0.027  l-0.042,0.023l-0.025,0.011l-0.101,0.042c-0.135,0.057-0.252,0.118-0.411,0.158c-0.588,0.186-1.088,0.162-1.49,0.114  c-0.399-0.058-0.698-0.148-0.9-0.21c-0.2-0.065-0.307-0.101-0.307-0.101s0.111,0.011,0.321,0.03  c0.209,0.019,0.517,0.027,0.897,0.016c0.375-0.021,0.843-0.107,1.273-0.315c0.104-0.038,0.227-0.125,0.35-0.2l0.093-0.058  l0.023-0.015c-0.027,0.014,0.005-0.005,0.005-0.007l0.043-0.033l0.176-0.134c0.238-0.186,0.489-0.381,0.75-0.584  c0.264-0.209,0.547-0.428,0.857-0.645c0.164-0.104,0.312-0.212,0.505-0.309c0.188-0.104,0.377-0.201,0.546-0.27  c0.374-0.175,0.887-0.316,1.404-0.258c0.26,0.019,0.516,0.096,0.746,0.198c0.119,0.043,0.236,0.115,0.353,0.179  c0.131,0.07,0.185,0.12,0.282,0.18l0.263,0.177c0.08,0.051,0.156,0.111,0.239,0.156c0.166,0.088,0.328,0.189,0.503,0.254  c0.342,0.156,0.704,0.246,1.077,0.305l0.282,0.034c0.093,0.005,0.181,0.002,0.272,0.005c0.16,0.016,0.416-0.02,0.629-0.033  c0.316-0.031,0.717-0.152,1.078-0.305c0.75-0.3,1.492-0.764,2.264-1.209c0.771-0.445,1.598-0.886,2.562-1.062  c0.479-0.083,0.998-0.081,1.47,0.063c0.474,0.141,0.884,0.388,1.214,0.671c0.162,0.144,0.344,0.312,0.452,0.444  c0.067,0.08,0.11,0.116,0.196,0.23l0.178,0.243c0.217,0.322,0.389,0.64,0.555,0.908c0.164,0.271,0.344,0.511,0.521,0.682  l0.129,0.126c0.049,0.042,0.121,0.08,0.18,0.12c0.055,0.034,0.107,0.068,0.16,0.103c0.061,0.024,0.119,0.049,0.178,0.074  c0.236,0.102,0.461,0.195,0.686,0.246c0.221,0.058,0.424,0.128,0.611,0.147c0.191,0.031,0.359,0.06,0.508,0.084  c0.152,0.01,0.281,0.018,0.387,0.023C72.529,45.685,72.643,45.691,72.643,45.691z" stroke="none" fill="url('#linearGradientSjw521k8hm')" style=""></path>
        </g>
      </svg>
    </g>
    <g transform="matrix(1.1319,0,0,0.7816,141.532,217.7469)">
      <svg width="45.574" height="16.099507546109756" viewBox="9.425999999999998,41.94917479584864,45.574,16.099507546109756">
        <defs>
          <linearGradient x1="0" y1="0.5" x2="1" y2="0.5" id="linearGradientSjw521k8hs">
            <stop offset="0%" stop-color="#000000"></stop>
            <stop offset="100%" stop-color="#000000"></stop>
          </linearGradient>
        </defs>
        <g></g>
        <g></g>
        <g></g>
        <g></g>
        <g>
          <path d="M50,52.853c0,0-0.154,0.026-0.443,0.074c-0.145,0.024-0.322,0.055-0.532,0.089c-0.213,0.012-0.462,0.02-0.744,0.027  c-0.286,0.021-0.589-0.021-0.929-0.048c-0.341-0.006-0.702-0.103-1.094-0.202c-0.097-0.025-0.198-0.049-0.3-0.074  c-0.1-0.045-0.201-0.088-0.306-0.133c-0.094-0.045-0.182-0.072-0.283-0.132c-0.103-0.067-0.21-0.139-0.317-0.208  c-0.419-0.292-0.736-0.658-1.045-1.043c-0.6-0.784-1.137-1.523-1.908-2.064c-0.76-0.555-1.63-0.733-2.576-0.512  c-0.957,0.208-1.941,0.807-2.969,1.42c-1.035,0.617-2.104,1.324-3.362,1.857c-0.644,0.254-1.289,0.463-2.081,0.531  c-0.324,0.012-0.585,0.051-0.976,0.031c-0.181-0.005-0.366-0.008-0.544-0.021l-0.518-0.069c-1.381-0.183-2.675-0.941-3.577-1.68  c-0.821-0.645-1.521-0.791-2.434-0.458c-0.123,0.042-0.26,0.083-0.371,0.128l-0.313,0.138c-0.206,0.076-0.425,0.214-0.638,0.311  c-0.422,0.224-0.832,0.466-1.228,0.71c-0.398,0.24-0.781,0.482-1.167,0.692c-0.095,0.052-0.191,0.103-0.286,0.153l-0.07,0.039  l-0.059,0.031l-0.035,0.016l-0.14,0.059c-0.189,0.079-0.354,0.165-0.573,0.219c-0.819,0.26-1.515,0.226-2.074,0.159  c-0.557-0.079-0.973-0.206-1.255-0.292c-0.279-0.092-0.427-0.141-0.427-0.141s0.154,0.014,0.448,0.041  c0.29,0.026,0.719,0.037,1.248,0.023c0.522-0.031,1.175-0.15,1.775-0.439c0.144-0.053,0.316-0.174,0.487-0.278l0.128-0.081  l0.032-0.021c-0.038,0.021,0.007-0.007,0.006-0.011l0.061-0.046l0.245-0.184c0.332-0.259,0.681-0.531,1.046-0.815  c0.367-0.291,0.762-0.596,1.194-0.897c0.229-0.146,0.435-0.295,0.704-0.432c0.26-0.145,0.524-0.28,0.761-0.375  c0.521-0.243,1.234-0.439,1.956-0.358c0.361,0.024,0.717,0.133,1.039,0.275c0.166,0.06,0.328,0.16,0.491,0.249  c0.182,0.099,0.257,0.167,0.393,0.253l0.367,0.246c0.11,0.07,0.217,0.154,0.332,0.217c0.231,0.122,0.458,0.263,0.703,0.355  c0.473,0.215,0.979,0.342,1.498,0.424l0.392,0.046c0.13,0.007,0.253,0.004,0.381,0.007c0.224,0.022,0.579-0.027,0.875-0.045  c0.442-0.043,1.001-0.212,1.502-0.425c1.047-0.418,2.08-1.063,3.152-1.685c1.073-0.621,2.228-1.233,3.57-1.477  c0.666-0.116,1.389-0.114,2.048,0.086c0.657,0.196,1.229,0.541,1.688,0.937c0.227,0.201,0.479,0.433,0.631,0.618  c0.094,0.113,0.152,0.163,0.273,0.321l0.25,0.337c0.3,0.448,0.539,0.891,0.77,1.265c0.228,0.376,0.478,0.711,0.727,0.948  l0.181,0.178c0.067,0.059,0.167,0.111,0.25,0.168c0.073,0.047,0.148,0.094,0.222,0.143c0.084,0.033,0.168,0.067,0.248,0.104  c0.328,0.14,0.641,0.271,0.954,0.342c0.308,0.082,0.591,0.179,0.853,0.205c0.265,0.043,0.501,0.082,0.705,0.117  c0.214,0.013,0.393,0.023,0.54,0.032C49.845,52.844,50,52.853,50,52.853z" stroke="none" fill="url('#linearGradientSjw521k8hs')" style=""></path>
        </g>
      </svg>
    </g>
    <g transform="matrix(1.221,0,0,1.0897,222.6527,237.4686)">
      <svg width="71.74000000000001" height="23.27765759384493" viewBox="14.544999999999995,45.489738932210905,71.74000000000001,23.27765759384493">
        <defs>
          <linearGradient x1="0" y1="0.5" x2="1" y2="0.5" id="linearGradientSjw521k8hy">
            <stop offset="0%" stop-color="#000000"></stop>
            <stop offset="100%" stop-color="#000000"></stop>
          </linearGradient>
        </defs>
        <g></g>
        <g></g>
        <g></g>
        <g></g>
        <g>
          <path d="M81.285,59.776c0,0-0.265,0.066-0.76,0.191c-0.247,0.062-0.553,0.138-0.912,0.226c-0.367,0.053-0.798,0.103-1.288,0.15  c-0.495,0.077-1.028,0.042-1.624,0.041c-0.596,0.033-1.235-0.088-1.932-0.213c-0.177-0.03-0.354-0.06-0.531-0.092  c-0.184-0.062-0.368-0.128-0.557-0.192c-0.168-0.064-0.324-0.102-0.512-0.193c-0.191-0.106-0.388-0.216-0.586-0.326  c-0.78-0.462-1.382-1.064-1.968-1.694c-0.587-0.64-1.106-1.268-1.679-1.836l-0.428-0.4l-0.053-0.051l-0.025-0.027l-0.012-0.012  c0.027,0.025-0.087-0.078,0.062,0.057l-0.134-0.101l-0.27-0.205c-0.356-0.259-0.731-0.577-1.088-0.8  c-0.33-0.14-0.647-0.286-0.959-0.45c-0.357-0.088-0.717-0.179-1.081-0.267c-0.377,0.021-0.736-0.037-1.118-0.001  c-0.386,0.102-0.76,0.063-1.161,0.243c-1.595,0.475-3.214,1.606-4.928,2.78c-1.72,1.186-3.497,2.535-5.638,3.618  c-0.526,0.272-1.132,0.47-1.696,0.701c-0.629,0.184-1.179,0.329-1.915,0.472c-0.56,0.058-0.997,0.156-1.697,0.166  c-0.656,0.044-1.278,0.018-1.884-0.037c-2.448-0.161-4.822-1.37-6.465-2.551c-0.481-0.323-0.722-0.458-1.052-0.6  c-0.168-0.068-0.333-0.142-0.497-0.173c-0.164-0.061-0.326-0.094-0.489-0.11c-0.635-0.095-1.366,0.023-2.026,0.349  c-0.85,0.381-1.701,0.751-2.311,1.184c-0.338,0.206-0.674,0.408-1.003,0.606c-0.344,0.236-0.683,0.469-1.013,0.696  c-0.652,0.453-1.328,0.904-1.966,1.31l-0.473,0.299l-0.116,0.074l-0.102,0.065l-0.06,0.031l-0.236,0.117  c-0.321,0.155-0.594,0.317-0.979,0.44c-1.414,0.538-2.63,0.54-3.612,0.481c-0.979-0.087-1.713-0.272-2.209-0.395  c-0.493-0.135-0.757-0.206-0.757-0.206s0.271,0.004,0.783,0.012c0.506,0.005,1.253-0.036,2.167-0.132  c0.897-0.121,2.01-0.419,2.993-0.991c0.235-0.109,0.52-0.34,0.8-0.544l0.215-0.156l0.052-0.04c-0.072,0.043,0.008-0.014,0.004-0.015  l0.098-0.09l0.399-0.36c0.544-0.488,1.118-1,1.715-1.535c1.105-1.052,2.825-2.473,4.381-3.259c0.956-0.575,2.15-0.953,3.46-0.916  c0.648,0.002,1.292,0.149,1.882,0.362c0.3,0.086,0.601,0.244,0.901,0.384c0.341,0.156,0.47,0.261,0.717,0.394l0.667,0.385  c0.198,0.107,0.389,0.239,0.594,0.329c0.411,0.181,0.812,0.397,1.237,0.522c0.836,0.311,1.707,0.466,2.597,0.548  c0.455,0.031,0.899,0.042,1.313,0.005c0.374,0.013,0.994-0.113,1.502-0.177c0.312-0.087,0.812-0.214,1.213-0.339  c0.427-0.195,0.854-0.333,1.284-0.562c1.742-0.83,3.461-2.056,5.261-3.252c1.798-1.195,3.754-2.38,6.089-2.968  c0.551-0.191,1.211-0.174,1.801-0.252c0.608-0.029,1.233,0.097,1.827,0.167c0.573,0.185,1.136,0.377,1.676,0.597  c0.517,0.306,1.02,0.62,1.496,0.936c0.396,0.316,0.695,0.628,1.038,0.934l0.248,0.23l0.123,0.113  c0.161,0.145,0.054,0.05,0.094,0.087l0.016,0.018l0.031,0.037l0.059,0.069l0.472,0.566c0.571,0.754,1.035,1.499,1.472,2.12  c0.428,0.628,0.893,1.176,1.332,1.555l0.317,0.283c0.121,0.096,0.304,0.177,0.449,0.266c0.126,0.071,0.365,0.199,0.392,0.223  c0.15,0.052,0.298,0.104,0.439,0.154c0.579,0.211,1.129,0.409,1.679,0.5c0.538,0.113,1.041,0.256,1.493,0.277  c0.465,0.052,0.876,0.099,1.235,0.14c0.37,0.004,0.685,0.006,0.939,0.009C81.011,59.776,81.285,59.776,81.285,59.776z" stroke="none" fill="url('#linearGradientSjw521k8hy')" style=""></path>
        </g>
      </svg>
    </g>
    <g transform="matrix(1.6298,0,0,1.0897,185.4783,207.3722)">
      <svg width="35.542" height="14.382738259576463" viewBox="42.101,36.45060859849064,35.542,14.382738259576463">
        <defs>
          <linearGradient x1="0" y1="0.5" x2="1" y2="0.5" id="linearGradientSjw521k8h14">
            <stop offset="0%" stop-color="#000000"></stop>
            <stop offset="100%" stop-color="#000000"></stop>
          </linearGradient>
        </defs>
        <g></g>
        <g></g>
        <g></g>
        <g></g>
        <g>
          <path d="M72.643,45.691c0,0-0.111,0.019-0.318,0.054c-0.104,0.018-0.232,0.039-0.383,0.063c-0.152,0.009-0.33,0.016-0.533,0.021  c-0.205,0.016-0.424-0.016-0.668-0.034c-0.244-0.005-0.502-0.074-0.783-0.146c-0.072-0.018-0.143-0.035-0.217-0.054  c-0.07-0.031-0.145-0.062-0.219-0.095c-0.066-0.032-0.131-0.052-0.205-0.095c-0.072-0.049-0.15-0.1-0.227-0.15  c-0.301-0.208-0.529-0.472-0.75-0.748c-0.431-0.563-0.816-1.093-1.37-1.483c-0.546-0.397-1.17-0.526-1.851-0.367  c-0.687,0.15-1.394,0.58-2.133,1.02c-0.742,0.443-1.509,0.951-2.412,1.335c-0.463,0.182-0.926,0.332-1.496,0.38  c-0.23,0.008-0.418,0.038-0.699,0.023c-0.13-0.004-0.264-0.005-0.39-0.015l-0.373-0.049c-0.991-0.131-1.921-0.677-2.567-1.206  c-0.59-0.463-1.092-0.568-1.748-0.33c-0.088,0.031-0.188,0.06-0.266,0.092l-0.225,0.098c-0.148,0.056-0.306,0.155-0.458,0.223  c-0.305,0.162-0.598,0.335-0.883,0.509c-0.286,0.173-0.561,0.348-0.837,0.498c-0.069,0.037-0.138,0.074-0.205,0.11l-0.05,0.027  l-0.042,0.023l-0.025,0.011l-0.101,0.042c-0.135,0.057-0.252,0.118-0.411,0.158c-0.588,0.186-1.088,0.162-1.49,0.114  c-0.399-0.058-0.698-0.148-0.9-0.21c-0.2-0.065-0.307-0.101-0.307-0.101s0.111,0.011,0.321,0.03  c0.209,0.019,0.517,0.027,0.897,0.016c0.375-0.021,0.843-0.107,1.273-0.315c0.104-0.038,0.227-0.125,0.35-0.2l0.093-0.058  l0.023-0.015c-0.027,0.014,0.005-0.005,0.005-0.007l0.043-0.033l0.176-0.134c0.238-0.186,0.489-0.381,0.75-0.584  c0.264-0.209,0.547-0.428,0.857-0.645c0.164-0.104,0.312-0.212,0.505-0.309c0.188-0.104,0.377-0.201,0.546-0.27  c0.374-0.175,0.887-0.316,1.404-0.258c0.26,0.019,0.516,0.096,0.746,0.198c0.119,0.043,0.236,0.115,0.353,0.179  c0.131,0.07,0.185,0.12,0.282,0.18l0.263,0.177c0.08,0.051,0.156,0.111,0.239,0.156c0.166,0.088,0.328,0.189,0.503,0.254  c0.342,0.156,0.704,0.246,1.077,0.305l0.282,0.034c0.093,0.005,0.181,0.002,0.272,0.005c0.16,0.016,0.416-0.02,0.629-0.033  c0.316-0.031,0.717-0.152,1.078-0.305c0.75-0.3,1.492-0.764,2.264-1.209c0.771-0.445,1.598-0.886,2.562-1.062  c0.479-0.083,0.998-0.081,1.47,0.063c0.474,0.141,0.884,0.388,1.214,0.671c0.162,0.144,0.344,0.312,0.452,0.444  c0.067,0.08,0.11,0.116,0.196,0.23l0.178,0.243c0.217,0.322,0.389,0.64,0.555,0.908c0.164,0.271,0.344,0.511,0.521,0.682  l0.129,0.126c0.049,0.042,0.121,0.08,0.18,0.12c0.055,0.034,0.107,0.068,0.16,0.103c0.061,0.024,0.119,0.049,0.178,0.074  c0.236,0.102,0.461,0.195,0.686,0.246c0.221,0.058,0.424,0.128,0.611,0.147c0.191,0.031,0.359,0.06,0.508,0.084  c0.152,0.01,0.281,0.018,0.387,0.023C72.529,45.685,72.643,45.691,72.643,45.691z" stroke="none" fill="url('#linearGradientSjw521k8h14')" style=""></path>
        </g>
      </svg>
    </g>
    <g transform="matrix(1.1997,0,0,1.0897,220.0061,224.2825)">
      <svg width="45.574" height="16.099507546109756" viewBox="9.425999999999998,41.94917479584864,45.574,16.099507546109756">
        <defs>
          <linearGradient x1="0" y1="0.5" x2="1" y2="0.5" id="linearGradientSjw521k8h1a">
            <stop offset="0%" stop-color="#000000"></stop>
            <stop offset="100%" stop-color="#000000"></stop>
          </linearGradient>
        </defs>
        <g></g>
        <g></g>
        <g></g>
        <g></g>
        <g>
          <path d="M50,52.853c0,0-0.154,0.026-0.443,0.074c-0.145,0.024-0.322,0.055-0.532,0.089c-0.213,0.012-0.462,0.02-0.744,0.027  c-0.286,0.021-0.589-0.021-0.929-0.048c-0.341-0.006-0.702-0.103-1.094-0.202c-0.097-0.025-0.198-0.049-0.3-0.074  c-0.1-0.045-0.201-0.088-0.306-0.133c-0.094-0.045-0.182-0.072-0.283-0.132c-0.103-0.067-0.21-0.139-0.317-0.208  c-0.419-0.292-0.736-0.658-1.045-1.043c-0.6-0.784-1.137-1.523-1.908-2.064c-0.76-0.555-1.63-0.733-2.576-0.512  c-0.957,0.208-1.941,0.807-2.969,1.42c-1.035,0.617-2.104,1.324-3.362,1.857c-0.644,0.254-1.289,0.463-2.081,0.531  c-0.324,0.012-0.585,0.051-0.976,0.031c-0.181-0.005-0.366-0.008-0.544-0.021l-0.518-0.069c-1.381-0.183-2.675-0.941-3.577-1.68  c-0.821-0.645-1.521-0.791-2.434-0.458c-0.123,0.042-0.26,0.083-0.371,0.128l-0.313,0.138c-0.206,0.076-0.425,0.214-0.638,0.311  c-0.422,0.224-0.832,0.466-1.228,0.71c-0.398,0.24-0.781,0.482-1.167,0.692c-0.095,0.052-0.191,0.103-0.286,0.153l-0.07,0.039  l-0.059,0.031l-0.035,0.016l-0.14,0.059c-0.189,0.079-0.354,0.165-0.573,0.219c-0.819,0.26-1.515,0.226-2.074,0.159  c-0.557-0.079-0.973-0.206-1.255-0.292c-0.279-0.092-0.427-0.141-0.427-0.141s0.154,0.014,0.448,0.041  c0.29,0.026,0.719,0.037,1.248,0.023c0.522-0.031,1.175-0.15,1.775-0.439c0.144-0.053,0.316-0.174,0.487-0.278l0.128-0.081  l0.032-0.021c-0.038,0.021,0.007-0.007,0.006-0.011l0.061-0.046l0.245-0.184c0.332-0.259,0.681-0.531,1.046-0.815  c0.367-0.291,0.762-0.596,1.194-0.897c0.229-0.146,0.435-0.295,0.704-0.432c0.26-0.145,0.524-0.28,0.761-0.375  c0.521-0.243,1.234-0.439,1.956-0.358c0.361,0.024,0.717,0.133,1.039,0.275c0.166,0.06,0.328,0.16,0.491,0.249  c0.182,0.099,0.257,0.167,0.393,0.253l0.367,0.246c0.11,0.07,0.217,0.154,0.332,0.217c0.231,0.122,0.458,0.263,0.703,0.355  c0.473,0.215,0.979,0.342,1.498,0.424l0.392,0.046c0.13,0.007,0.253,0.004,0.381,0.007c0.224,0.022,0.579-0.027,0.875-0.045  c0.442-0.043,1.001-0.212,1.502-0.425c1.047-0.418,2.08-1.063,3.152-1.685c1.073-0.621,2.228-1.233,3.57-1.477  c0.666-0.116,1.389-0.114,2.048,0.086c0.657,0.196,1.229,0.541,1.688,0.937c0.227,0.201,0.479,0.433,0.631,0.618  c0.094,0.113,0.152,0.163,0.273,0.321l0.25,0.337c0.3,0.448,0.539,0.891,0.77,1.265c0.228,0.376,0.478,0.711,0.727,0.948  l0.181,0.178c0.067,0.059,0.167,0.111,0.25,0.168c0.073,0.047,0.148,0.094,0.222,0.143c0.084,0.033,0.168,0.067,0.248,0.104  c0.328,0.14,0.641,0.271,0.954,0.342c0.308,0.082,0.591,0.179,0.853,0.205c0.265,0.043,0.501,0.082,0.705,0.117  c0.214,0.013,0.393,0.023,0.54,0.032C49.845,52.844,50,52.853,50,52.853z" stroke="none" fill="url('#linearGradientSjw521k8h1a')" style=""></path>
        </g>
      </svg>
    </g>
    <g transform="matrix(0.908,0,0,0.7871,304.7675,225.948)">
      <svg width="71.74000000000001" height="23.27765759384493" viewBox="14.544999999999995,45.489738932210905,71.74000000000001,23.27765759384493">
        <defs>
          <linearGradient x1="0" y1="0.5" x2="1" y2="0.5" id="linearGradientSjw521k8h1g">
            <stop offset="0%" stop-color="#000000"></stop>
            <stop offset="100%" stop-color="#000000"></stop>
          </linearGradient>
        </defs>
        <g></g>
        <g></g>
        <g></g>
        <g></g>
        <g>
          <path d="M81.285,59.776c0,0-0.265,0.066-0.76,0.191c-0.247,0.062-0.553,0.138-0.912,0.226c-0.367,0.053-0.798,0.103-1.288,0.15  c-0.495,0.077-1.028,0.042-1.624,0.041c-0.596,0.033-1.235-0.088-1.932-0.213c-0.177-0.03-0.354-0.06-0.531-0.092  c-0.184-0.062-0.368-0.128-0.557-0.192c-0.168-0.064-0.324-0.102-0.512-0.193c-0.191-0.106-0.388-0.216-0.586-0.326  c-0.78-0.462-1.382-1.064-1.968-1.694c-0.587-0.64-1.106-1.268-1.679-1.836l-0.428-0.4l-0.053-0.051l-0.025-0.027l-0.012-0.012  c0.027,0.025-0.087-0.078,0.062,0.057l-0.134-0.101l-0.27-0.205c-0.356-0.259-0.731-0.577-1.088-0.8  c-0.33-0.14-0.647-0.286-0.959-0.45c-0.357-0.088-0.717-0.179-1.081-0.267c-0.377,0.021-0.736-0.037-1.118-0.001  c-0.386,0.102-0.76,0.063-1.161,0.243c-1.595,0.475-3.214,1.606-4.928,2.78c-1.72,1.186-3.497,2.535-5.638,3.618  c-0.526,0.272-1.132,0.47-1.696,0.701c-0.629,0.184-1.179,0.329-1.915,0.472c-0.56,0.058-0.997,0.156-1.697,0.166  c-0.656,0.044-1.278,0.018-1.884-0.037c-2.448-0.161-4.822-1.37-6.465-2.551c-0.481-0.323-0.722-0.458-1.052-0.6  c-0.168-0.068-0.333-0.142-0.497-0.173c-0.164-0.061-0.326-0.094-0.489-0.11c-0.635-0.095-1.366,0.023-2.026,0.349  c-0.85,0.381-1.701,0.751-2.311,1.184c-0.338,0.206-0.674,0.408-1.003,0.606c-0.344,0.236-0.683,0.469-1.013,0.696  c-0.652,0.453-1.328,0.904-1.966,1.31l-0.473,0.299l-0.116,0.074l-0.102,0.065l-0.06,0.031l-0.236,0.117  c-0.321,0.155-0.594,0.317-0.979,0.44c-1.414,0.538-2.63,0.54-3.612,0.481c-0.979-0.087-1.713-0.272-2.209-0.395  c-0.493-0.135-0.757-0.206-0.757-0.206s0.271,0.004,0.783,0.012c0.506,0.005,1.253-0.036,2.167-0.132  c0.897-0.121,2.01-0.419,2.993-0.991c0.235-0.109,0.52-0.34,0.8-0.544l0.215-0.156l0.052-0.04c-0.072,0.043,0.008-0.014,0.004-0.015  l0.098-0.09l0.399-0.36c0.544-0.488,1.118-1,1.715-1.535c1.105-1.052,2.825-2.473,4.381-3.259c0.956-0.575,2.15-0.953,3.46-0.916  c0.648,0.002,1.292,0.149,1.882,0.362c0.3,0.086,0.601,0.244,0.901,0.384c0.341,0.156,0.47,0.261,0.717,0.394l0.667,0.385  c0.198,0.107,0.389,0.239,0.594,0.329c0.411,0.181,0.812,0.397,1.237,0.522c0.836,0.311,1.707,0.466,2.597,0.548  c0.455,0.031,0.899,0.042,1.313,0.005c0.374,0.013,0.994-0.113,1.502-0.177c0.312-0.087,0.812-0.214,1.213-0.339  c0.427-0.195,0.854-0.333,1.284-0.562c1.742-0.83,3.461-2.056,5.261-3.252c1.798-1.195,3.754-2.38,6.089-2.968  c0.551-0.191,1.211-0.174,1.801-0.252c0.608-0.029,1.233,0.097,1.827,0.167c0.573,0.185,1.136,0.377,1.676,0.597  c0.517,0.306,1.02,0.62,1.496,0.936c0.396,0.316,0.695,0.628,1.038,0.934l0.248,0.23l0.123,0.113  c0.161,0.145,0.054,0.05,0.094,0.087l0.016,0.018l0.031,0.037l0.059,0.069l0.472,0.566c0.571,0.754,1.035,1.499,1.472,2.12  c0.428,0.628,0.893,1.176,1.332,1.555l0.317,0.283c0.121,0.096,0.304,0.177,0.449,0.266c0.126,0.071,0.365,0.199,0.392,0.223  c0.15,0.052,0.298,0.104,0.439,0.154c0.579,0.211,1.129,0.409,1.679,0.5c0.538,0.113,1.041,0.256,1.493,0.277  c0.465,0.052,0.876,0.099,1.235,0.14c0.37,0.004,0.685,0.006,0.939,0.009C81.011,59.776,81.285,59.776,81.285,59.776z" stroke="none" fill="url('#linearGradientSjw521k8h1g')" style=""></path>
        </g>
      </svg>
    </g>
    <g transform="matrix(1.2122,0,0,0.7871,363.7858,219.4901)">
      <svg width="35.542" height="14.382738259576463" viewBox="42.101,36.45060859849064,35.542,14.382738259576463">
        <defs>
          <linearGradient x1="0" y1="0.5" x2="1" y2="0.5" id="linearGradientSjw521k8h1m">
            <stop offset="0%" stop-color="#000000"></stop>
            <stop offset="100%" stop-color="#000000"></stop>
          </linearGradient>
        </defs>
        <g></g>
        <g></g>
        <g></g>
        <g></g>
        <g>
          <path d="M72.643,45.691c0,0-0.111,0.019-0.318,0.054c-0.104,0.018-0.232,0.039-0.383,0.063c-0.152,0.009-0.33,0.016-0.533,0.021  c-0.205,0.016-0.424-0.016-0.668-0.034c-0.244-0.005-0.502-0.074-0.783-0.146c-0.072-0.018-0.143-0.035-0.217-0.054  c-0.07-0.031-0.145-0.062-0.219-0.095c-0.066-0.032-0.131-0.052-0.205-0.095c-0.072-0.049-0.15-0.1-0.227-0.15  c-0.301-0.208-0.529-0.472-0.75-0.748c-0.431-0.563-0.816-1.093-1.37-1.483c-0.546-0.397-1.17-0.526-1.851-0.367  c-0.687,0.15-1.394,0.58-2.133,1.02c-0.742,0.443-1.509,0.951-2.412,1.335c-0.463,0.182-0.926,0.332-1.496,0.38  c-0.23,0.008-0.418,0.038-0.699,0.023c-0.13-0.004-0.264-0.005-0.39-0.015l-0.373-0.049c-0.991-0.131-1.921-0.677-2.567-1.206  c-0.59-0.463-1.092-0.568-1.748-0.33c-0.088,0.031-0.188,0.06-0.266,0.092l-0.225,0.098c-0.148,0.056-0.306,0.155-0.458,0.223  c-0.305,0.162-0.598,0.335-0.883,0.509c-0.286,0.173-0.561,0.348-0.837,0.498c-0.069,0.037-0.138,0.074-0.205,0.11l-0.05,0.027  l-0.042,0.023l-0.025,0.011l-0.101,0.042c-0.135,0.057-0.252,0.118-0.411,0.158c-0.588,0.186-1.088,0.162-1.49,0.114  c-0.399-0.058-0.698-0.148-0.9-0.21c-0.2-0.065-0.307-0.101-0.307-0.101s0.111,0.011,0.321,0.03  c0.209,0.019,0.517,0.027,0.897,0.016c0.375-0.021,0.843-0.107,1.273-0.315c0.104-0.038,0.227-0.125,0.35-0.2l0.093-0.058  l0.023-0.015c-0.027,0.014,0.005-0.005,0.005-0.007l0.043-0.033l0.176-0.134c0.238-0.186,0.489-0.381,0.75-0.584  c0.264-0.209,0.547-0.428,0.857-0.645c0.164-0.104,0.312-0.212,0.505-0.309c0.188-0.104,0.377-0.201,0.546-0.27  c0.374-0.175,0.887-0.316,1.404-0.258c0.26,0.019,0.516,0.096,0.746,0.198c0.119,0.043,0.236,0.115,0.353,0.179  c0.131,0.07,0.185,0.12,0.282,0.18l0.263,0.177c0.08,0.051,0.156,0.111,0.239,0.156c0.166,0.088,0.328,0.189,0.503,0.254  c0.342,0.156,0.704,0.246,1.077,0.305l0.282,0.034c0.093,0.005,0.181,0.002,0.272,0.005c0.16,0.016,0.416-0.02,0.629-0.033  c0.316-0.031,0.717-0.152,1.078-0.305c0.75-0.3,1.492-0.764,2.264-1.209c0.771-0.445,1.598-0.886,2.562-1.062  c0.479-0.083,0.998-0.081,1.47,0.063c0.474,0.141,0.884,0.388,1.214,0.671c0.162,0.144,0.344,0.312,0.452,0.444  c0.067,0.08,0.11,0.116,0.196,0.23l0.178,0.243c0.217,0.322,0.389,0.64,0.555,0.908c0.164,0.271,0.344,0.511,0.521,0.682  l0.129,0.126c0.049,0.042,0.121,0.08,0.18,0.12c0.055,0.034,0.107,0.068,0.16,0.103c0.061,0.024,0.119,0.049,0.178,0.074  c0.236,0.102,0.461,0.195,0.686,0.246c0.221,0.058,0.424,0.128,0.611,0.147c0.191,0.031,0.359,0.06,0.508,0.084  c0.152,0.01,0.281,0.018,0.387,0.023C72.529,45.685,72.643,45.691,72.643,45.691z" stroke="none" fill="url('#linearGradientSjw521k8h1m')" style=""></path>
        </g>
      </svg>
    </g>
    <g transform="matrix(1.3616,0,0,0.7871,304.3635,208.7029)">
      <svg width="45.574" height="16.099507546109756" viewBox="9.425999999999998,41.94917479584864,45.574,16.099507546109756">
        <defs>
          <linearGradient x1="0" y1="0.5" x2="1" y2="0.5" id="linearGradientSjw521k8h1s">
            <stop offset="0%" stop-color="#000000"></stop>
            <stop offset="100%" stop-color="#000000"></stop>
          </linearGradient>
        </defs>
        <g></g>
        <g></g>
        <g></g>
        <g></g>
        <g>
          <path d="M50,52.853c0,0-0.154,0.026-0.443,0.074c-0.145,0.024-0.322,0.055-0.532,0.089c-0.213,0.012-0.462,0.02-0.744,0.027  c-0.286,0.021-0.589-0.021-0.929-0.048c-0.341-0.006-0.702-0.103-1.094-0.202c-0.097-0.025-0.198-0.049-0.3-0.074  c-0.1-0.045-0.201-0.088-0.306-0.133c-0.094-0.045-0.182-0.072-0.283-0.132c-0.103-0.067-0.21-0.139-0.317-0.208  c-0.419-0.292-0.736-0.658-1.045-1.043c-0.6-0.784-1.137-1.523-1.908-2.064c-0.76-0.555-1.63-0.733-2.576-0.512  c-0.957,0.208-1.941,0.807-2.969,1.42c-1.035,0.617-2.104,1.324-3.362,1.857c-0.644,0.254-1.289,0.463-2.081,0.531  c-0.324,0.012-0.585,0.051-0.976,0.031c-0.181-0.005-0.366-0.008-0.544-0.021l-0.518-0.069c-1.381-0.183-2.675-0.941-3.577-1.68  c-0.821-0.645-1.521-0.791-2.434-0.458c-0.123,0.042-0.26,0.083-0.371,0.128l-0.313,0.138c-0.206,0.076-0.425,0.214-0.638,0.311  c-0.422,0.224-0.832,0.466-1.228,0.71c-0.398,0.24-0.781,0.482-1.167,0.692c-0.095,0.052-0.191,0.103-0.286,0.153l-0.07,0.039  l-0.059,0.031l-0.035,0.016l-0.14,0.059c-0.189,0.079-0.354,0.165-0.573,0.219c-0.819,0.26-1.515,0.226-2.074,0.159  c-0.557-0.079-0.973-0.206-1.255-0.292c-0.279-0.092-0.427-0.141-0.427-0.141s0.154,0.014,0.448,0.041  c0.29,0.026,0.719,0.037,1.248,0.023c0.522-0.031,1.175-0.15,1.775-0.439c0.144-0.053,0.316-0.174,0.487-0.278l0.128-0.081  l0.032-0.021c-0.038,0.021,0.007-0.007,0.006-0.011l0.061-0.046l0.245-0.184c0.332-0.259,0.681-0.531,1.046-0.815  c0.367-0.291,0.762-0.596,1.194-0.897c0.229-0.146,0.435-0.295,0.704-0.432c0.26-0.145,0.524-0.28,0.761-0.375  c0.521-0.243,1.234-0.439,1.956-0.358c0.361,0.024,0.717,0.133,1.039,0.275c0.166,0.06,0.328,0.16,0.491,0.249  c0.182,0.099,0.257,0.167,0.393,0.253l0.367,0.246c0.11,0.07,0.217,0.154,0.332,0.217c0.231,0.122,0.458,0.263,0.703,0.355  c0.473,0.215,0.979,0.342,1.498,0.424l0.392,0.046c0.13,0.007,0.253,0.004,0.381,0.007c0.224,0.022,0.579-0.027,0.875-0.045  c0.442-0.043,1.001-0.212,1.502-0.425c1.047-0.418,2.08-1.063,3.152-1.685c1.073-0.621,2.228-1.233,3.57-1.477  c0.666-0.116,1.389-0.114,2.048,0.086c0.657,0.196,1.229,0.541,1.688,0.937c0.227,0.201,0.479,0.433,0.631,0.618  c0.094,0.113,0.152,0.163,0.273,0.321l0.25,0.337c0.3,0.448,0.539,0.891,0.77,1.265c0.228,0.376,0.478,0.711,0.727,0.948  l0.181,0.178c0.067,0.059,0.167,0.111,0.25,0.168c0.073,0.047,0.148,0.094,0.222,0.143c0.084,0.033,0.168,0.067,0.248,0.104  c0.328,0.14,0.641,0.271,0.954,0.342c0.308,0.082,0.591,0.179,0.853,0.205c0.265,0.043,0.501,0.082,0.705,0.117  c0.214,0.013,0.393,0.023,0.54,0.032C49.845,52.844,50,52.853,50,52.853z" stroke="none" fill="url('#linearGradientSjw521k8h1s')" style=""></path>
        </g>
      </svg>
    </g>
    <g transform="matrix(0.5,0,0,0.5,134.183,78.365)">
      <svg width="547" height="270" style="overflow: visible;">
        <defs>
          <linearGradient x1="0" y1="0.5" x2="1" y2="0.5" id="linearGradientSjw521k8h21">
            <stop offset="0%" stop-color="#000000"></stop>
            <stop offset="100%" stop-color="#000000"></stop>
          </linearGradient>
        </defs>
        <g>
          <path d="M 1.0797875308779936 160.61013964863835L 6.884018317985692 152.815211491818L 14.033633346211026 140.763530905768Q 19.116788033240454 132.97562114590747  25.998858771144583 130.4817080843747Q 32.88092950904871 127.98779502284195  39.3289838263526 132.1964284733932L 39.3289838263526 132.1964284733932Q 48.87545385456872 138.4273922833002  44.60913342661602 153.1969051393843L 44.60913342661602 153.1969051393843Q 49.09105476356669 146.3301459962815  56.395339525749705 144.4700588711873Q 63.69962428793271 142.60997174609315  70.39890150071597 146.98257792848403L 70.39890150071597 146.98257792848403Q 86.89587163719469 157.75012065262163  72.9035318535438 179.18780773352802L 72.9035318535438 179.18780773352802L 65.78751921171886 188.9925190541834L 59.731055729091224 199.36938033703757Q 59.31586010177219 199.45663050067725  58.10161610695525 198.6640956301189Q 56.88737211213828 197.87156075956057  56.712871784858834 197.0411695049225L 56.712871784858834 197.0411695049225Q 58.68054456693474 194.02649475917002  58.48097495027561 192.04529008319471Q 58.28140533361645 190.06408540721935  56.02039927430212 188.58833082066243L 56.02039927430212 188.58833082066243L 12.413421416971275 159.5290555002031Q 10.152415357656935 158.05330091364618  8.327660116541153 158.6535244636844Q 6.502904875425372 159.25374801372263  4.480574516069581 162.35216372463486L 4.480574516069581 162.35216372463486Q 3.7339242265912986 162.5813216291942  2.435939266614554 161.73412918135597Q 1.1379543066377948 160.88693673351773  1.0797875308779936 160.61013964863835L 1.0797875308779936 160.61013964863835ZM 35.24514171935586 165.7139199315128L 37.704732696950735 161.94557649932221Q 41.96802372478186 155.41378121685855  41.646111959683786 149.41200041317273Q 41.3242001945857 143.41021960948694  35.964778424359096 139.91213466357422L 35.964778424359096 139.91213466357422Q 25.245934883905903 132.91596477174878  16.282092210004564 146.64948305795443L 16.282092210004564 146.64948305795443Q 14.533049737048202 149.3291939430677  13.06782274593104 152.6718141524995L 13.06782274593104 152.6718141524995L 35.24514171935586 165.7139199315128ZM 68.3780105364352 175.87576051037502L 68.3780105364352 175.87576051037502Q 72.36801367786691 169.7626700537103  71.81292990970933 164.02665383944384Q 71.25784614155174 158.29063762517734  65.56346051068599 154.57392237014508Q 59.86907487982022 150.85720711511283  53.890103866253924 153.52261620546534Q 47.9111328526876 156.18802529581785  43.59318424757659 162.80356154344133L 43.59318424757659 162.80356154344133Q 41.89879935190012 165.39953146339482  40.43357236078295 168.7421516728266L 40.43357236078295 168.7421516728266L 57.506201657940466 178.81068328780594Q 61.30011927953103 181.04813475780136  63.58194063054572 180.38798983276337Q 65.86376198156043 179.7278449077254  68.3780105364352 175.87576051037502ZM 57.79461397473048 98.85878578562655Q 59.701236736178174 100.55209309545828  59.722927445342265 102.71126643568272Q 59.74461815450634 104.87043977590716  58.05131084467462 106.77706253735485Q 56.358003534842894 108.68368529880256  54.16562809050411 108.74276076799501Q 51.97325264616532 108.8018362371875  50.14139940477439 107.17493313558447Q 48.30954616338346 105.54803003398143  48.07191220587715 103.33081779735637Q 47.83427824837082 101.11360556073132  49.427979245859504 99.31913707936877Q 51.021680243348186 97.52466859800623  53.45483572831549 97.34507353690053Q 55.88799121328279 97.16547847579483  57.79461397473048 98.85878578562655ZM 108.5712606266558 133.92364932144432L 100.15413851887176 142.49756647888483L 92.16942119416812 152.39172077546712Q 91.74590000931171 152.41681671095134  90.73651148854529 151.52035989986396Q 89.72712296777887 150.6239030887766  89.67693109681039 149.7768607190638L 89.67693109681039 149.7768607190638Q 92.3330994259582 146.7860799167929  92.70172779753617 144.6391954011126Q 93.07035616911415 142.49231088543232  90.97680960752453 140.63299305502886L 90.97680960752453 140.63299305502886L 70.78067388036783 122.56268310499573Q 66.96742835747244 119.17606848533228  61.45587907449076 125.3819386500444L 61.45587907449076 125.3819386500444Q 61.03235788963436 125.40703458552865  60.022969368867926 124.51057777444126Q 59.01358084810149 123.61412096335387  58.96338897713303 122.76707859364107L 58.96338897713303 122.76707859364107Q 61.021919432222575 120.44922347188111  62.320465862200244 117.85764534857628Q 63.61901229217791 115.26606722527144  63.838619910038275 114.19053363947427Q 64.05822752789862 113.11500005367712  64.00385300101613 112.19737081982157Q 63.94947847413361 111.27974158596604  64.81273318110664 110.30773782522799Q 65.67598788807967 109.33573406448996  66.37349121767893 109.15273377706409L 66.37349121767893 109.15273377706409L 96.82037993164968 134.05327529003287Q 98.980330701468 135.83782360037955  101.00225382612305 135.29300539401603Q 103.0241769507781 134.74818718765252  105.68034527992589 131.7574063853816L 105.68034527992589 131.7574063853816Q 106.38621392135323 131.71557982624122  107.47037196217643 132.67844084555728Q 108.55453000299964 133.64130186487338  108.5712606266558 133.92364932144432L 108.5712606266558 133.92364932144432ZM 130.63038059864616 114.01193873102295L 121.16334868753634 121.4102700830258L 111.95218035054233 130.17408077630068Q 111.52901829839601 130.1435213649303  110.64566235665006 129.12264807201777Q 109.76230641490412 128.1017747791052  109.82342523764483 127.25545067481254L 109.82342523764483 127.25545067481254Q 112.84823499442277 124.63809973630603  113.49472111211195 122.5579421221731Q 114.14120722980113 120.47778450804017  112.30906157284657 118.36041767829562L 112.30906157284657 118.36041767829562L 94.21446573505932 96.990448060462Q 92.38232007810474 94.87308123071743  90.23085717077433 95.21397323470303Q 88.07939426344389 95.55486523868863  84.9789642627465 98.23764995065781L 84.9789642627465 98.23764995065781Q 84.55580221060018 98.20709053928746  83.67244626885423 97.18621724637491Q 82.78909032710827 96.16534395346234  82.85020914984898 95.31901984916966L 82.85020914984898 95.31901984916966Q 83.15269012552677 95.057284755319  84.1561262373932 93.92453766554017Q 85.15956234925959 92.79179057576134  85.42932643820605 92.49224535995097Q 85.6990905271525 92.19270014414057  86.40513889856952 91.25116113952134Q 87.11118726998652 90.30962213490209  87.30317363965256 89.61453851844831L 87.30317363965256 89.61453851844831Q 88.09580700995224 87.47404036608111  88.17220553837812 86.41613523571529Q 88.24860406680402 85.35823010534945  89.23166723775685 84.50759105033484Q 90.21473040870968 83.65695199532021  90.93018696607704 83.56683033022203L 90.93018696607704 83.56683033022203L 98.49150184538847 90.77699796321808Q 97.23531529743202 86.57438028411221  98.20405442536449 81.50446465345199Q 99.17279355329694 76.43454902279178  102.65132477359158 73.42459544350929L 102.65132477359158 73.42459544350929Q 104.6930713594167 71.6578835600174  107.2371369075231 71.77071301954848Q 109.7812024556295 71.88354247907957  111.38432990546472 73.73623845510606Q 112.98745735529998 75.58893443113256  112.87756365563631 77.60150079644184Q 112.76766995597265 79.61406716175114  111.10402458974477 81.05361017792971L 111.10402458974477 81.05361017792971Q 107.47425288161124 84.19443130413754  105.2495045838807 81.62334301087628L 105.2495045838807 81.62334301087628Q 104.66060062271673 80.94276081560125  104.58066542807535 80.0862502408518Q 104.50073023343394 79.22973966610232  104.30442891304595 79.00287893434398Q 104.10812759265797 78.77601820258563  103.57878588522182 79.23405461682428L 103.57878588522182 79.23405461682428Q 101.6882797872356 80.86989895339084  102.13871073456815 87.88556798504314Q 102.5891416819007 94.90123701669543  105.67471550510265 98.31433446352743L 105.67471550510265 98.31433446352743L 118.96364303775806 112.60224561358129Q 120.87140893863206 114.65417866986317  122.94725160204302 114.37872043934024Q 125.023094265454 114.1032622088173  128.04790402223196 111.4859112703108L 128.04790402223196 111.4859112703108Q 128.75317410914252 111.53684362259472  129.70196382435114 112.63333715942672Q 130.65075353955973 113.72983069625873  130.63038059864616 114.01193873102295L 130.63038059864616 114.01193873102295ZM 172.62150449572925 78.9027290453223L 172.62150449572925 78.9027290453223Q 170.7114615661473 88.11802806419055  162.1093516904091 93.31477759497685Q 153.50724181467092 98.51152712576315  145.5312778721359 95.26861189600751Q 137.55531392960086 92.02569666625189  131.91903831909633 82.6960451592324Q 126.28276270859178 73.36639365221285  127.60971312104887 64.15285998684429Q 128.93666353350596 54.939326321475725  137.75275624197394 49.6133044143017L 137.75275624197394 49.6133044143017Q 143.3163098929489 46.25222262822101  148.5320237180356 46.95672904749584Q 153.7477375431223 47.6612354667707  156.2814761203216 51.85529898827489L 156.2814761203216 51.85529898827489Q 157.4707819830886 53.8239410493891  157.03028761010972 55.60886813680022Q 156.58979323713092 57.39379522421135  154.66394774256267 58.557246611700826Q 152.73810224799442 59.72069799919029  151.09135992098012 59.60563406731071Q 149.44461759396586 59.490570135431135  148.64312886036197 58.16387657250635Q 147.84164012675814 56.83718300958156  148.17068689136752 55.06116830617953Q 148.49973365597688 53.285153602777555  148.18947995264637 52.77159480422601L 148.18947995264637 52.77159480422601Q 147.51726359543022 51.65888407403102  144.8603457625813 52.095676506988994Q 142.20342792973236 52.53246893994696  140.14919273552624 53.77348375326907L 140.14919273552624 53.77348375326907Q 135.09919788310282 56.82431183601923  134.41428158534592 62.84601339496973Q 133.72936528758902 68.86771495392024  138.07291713421637 76.05753813364171L 138.07291713421637 76.05753813364171Q 148.88008780022966 93.94650294985342  159.8360088359957 87.32775727880221L 159.8360088359957 87.32775727880221Q 163.00295476039682 85.41452610826397  165.7803182021351 82.27625392241146Q 168.55768164387342 79.13798173655893  169.66333096006971 76.1333953108433L 169.66333096006971 76.1333953108433Q 170.16083034410266 76.1833389078987  171.24318759876016 76.81460966857932Q 172.32554485341765 77.44588042925994  172.55823513091553 77.83104952817362Q 172.79092540841344 78.21621862708724  172.62150449572925 78.9027290453223ZM 170.48684829672766 3.6932806458302707L 182.64748721302507 37.26780761416495Q 188.11301327283022 26.24473976126705  195.88350005927646 23.625668341533668L 195.88350005927646 23.625668341533668Q 202.32731836998795 21.45375545687672  207.63335828079352 24.20301726051393Q 212.93939819159905 26.952279064151178  215.3647149349433 33.52174165209959L 215.3647149349433 33.52174165209959L 223.91720332737344 56.70438477788118Q 224.90628243150735 59.325781833988025  226.88454580585514 59.8725670036059Q 228.86280918020296 60.41935217322375  232.65329053944504 59.14175635871966L 232.65329053944504 59.14175635871966Q 233.2868001861633 59.45586705181192  233.74992866892103 60.829916544537156Q 234.21305715167875 62.20396603726243  234.08741287444184 62.457369895949725L 234.08741287444184 62.457369895949725L 222.6190914585211 65.68964524021308L 211.24976268500842 70.15488467833686Q 210.86965689697743 69.96641826248148  210.4384683095823 68.68713080373729Q 210.00727972218718 67.4078433449931  210.38421255389787 66.64763176893119L 210.38421255389787 66.64763176893119Q 213.9851698451778 65.43391574515232  215.18143460919526 63.81714408088727Q 216.37769937321266 62.20037241662222  215.5781443370409 59.51509556979018L 215.5781443370409 59.51509556979018L 208.64295643492918 37.686830206678906Q 207.14072370078011 32.91678861226372  203.49724999307 30.873482629003966Q 199.85377628535986 28.83017664574424  195.11567458630725 30.427171413874348L 195.11567458630725 30.427171413874348Q 190.37757288725467 32.024166182004464  186.32290081609779 39.40587563140575L 186.32290081609779 39.40587563140575Q 185.09734028698466 41.71845025495412  184.8769339757667 42.00379400900405L 184.8769339757667 42.00379400900405L 194.0671626233421 66.76545181710088Q 195.05624172747602 69.38684887320773  196.93974306784276 69.96557393818821Q 198.82324440820955 70.54429900316866  202.42420169948952 69.33058297938979L 202.42420169948952 69.33058297938979Q 203.05771134620778 69.64469367248203  203.5208398289655 71.01874316520727Q 203.98396831172323 72.39279265793255  203.85832403448637 72.64619651661982L 203.85832403448637 72.64619651661982L 192.7690507544898 75.75071227943278L 180.92591181107178 80.37565119436957Q 180.54580602304085 80.18718477851421  180.11461743564573 78.90789731977002Q 179.6834288482506 77.62860986102582  180.0603616799613 76.86839828496392L 180.0603616799613 76.86839828496392Q 183.85084303920334 75.59080247045982  185.23663187118288 73.91015101546958Q 186.6224207031624 72.22949956047933  185.72810363300954 69.57616260900988L 185.72810363300954 69.57616260900988L 168.44544728552148 17.361224233343584Q 166.81651262202877 12.528360500309944  158.95126380160147 15.17937181540593L 158.95126380160147 15.17937181540593Q 158.5711580135705 14.990905399550577  158.13996942617538 13.71161794080637Q 157.70878083878026 12.432330482062177  158.08571367049095 11.67211890600025L 158.08571367049095 11.67211890600025Q 161.5908512756831 10.174116780278204  163.70491178836193 8.775636123017627Q 165.8189723010408 7.377155465757035  167.07541507340977 4.843116878883954L 167.07541507340977 4.843116878883954Q 167.3267036278836 4.336309161509327  168.5586100696373 3.9210905217954988Q 169.79051651139093 3.5058718820816708  170.48684829672766 3.6932806458302707L 170.48684829672766 3.6932806458302707ZM 266.15311080891473-11.540558714687833L 275.82971061728966-10.63866285121L 289.84160725281066-10.80222530251389Q 299.1370931991495-10.512499533179813  304.84717915624765-5.932388359578157Q 310.55726511334575-1.3522771859764866  310.31738463766055 6.343985371744962L 310.31738463766055 6.343985371744962Q 309.96223692041235 17.738452015644242  295.12918214910206 21.778314160731775L 295.12918214910206 21.778314160731775Q 303.32520201576654 22.033771290682253  308.71362627152746 27.304196704244884Q 314.1020505272884 32.574622117807515  313.85282405904405 40.57073906089473L 313.85282405904405 40.57073906089473Q 313.2391038809923 60.261177033246994  287.65152966311325 59.46365233486502L 287.65152966311325 59.46365233486502L 275.5760947718121 58.48698853091387L 263.56322737206295 58.712857599278856Q 263.27271897925635 58.403657221353924  263.31789127662563 56.95436102541936Q 263.3630635739949 55.50506482948481  263.9814643298448 54.92404804387159L 263.9814643298448 54.92404804387159Q 267.579716954234 55.03619995458156  269.1679062476204 53.835094310446536Q 270.7560955410067 52.6339886663115  270.84020947403917 49.935299198019564L 270.84020947403917 49.935299198019564L 272.9724001499828-2.423690124936428Q 273.0565140830152-5.122379593228359  271.59462612642307-6.368527097487265Q 270.1327381698309-7.61467460174617  266.43453408365303-7.7299418433091915L 266.43453408365303-7.7299418433091915Q 265.8504019671867-8.248391137370469  265.89868959540905-9.797638795093615Q 265.9469772236314-11.346886452816758  266.15311080891473-11.540558714687833L 266.15311080891473-11.540558714687833ZM 279.56790741861255 20.292807929769353L 284.0657231990991 20.43299781815681Q 291.86193721860917 20.67599362469507  296.8201773606392 17.278810277573264Q 301.7784175026693 13.88162693045146  301.9777986772648 7.48473337598169L 301.9777986772648 7.48473337598169Q 302.3765610264558-5.30905373295786  285.984521293127-5.8199679928588175L 285.984521293127-5.8199679928588175Q 282.7860745158921-5.919658580156565  279.16912990638457-5.43210172013498L 279.16912990638457-5.43210172013498L 279.56790741861255 20.292807929769353ZM 288.12584257625 53.87571646726313L 288.12584257625 53.87571646726313Q 295.4222992868171 54.10313561953612  300.03226697801364 50.645072883534326Q 304.64223466921015 47.18701014753254  304.8540771672179 40.3903107459084Q 305.0659196652256 33.59361134428427  299.6791835121366 29.873991253871317Q 294.29244735904757 26.154371163458357  286.39628187774895 25.908260026067047L 286.39628187774895 25.908260026067047Q 283.29778656230263 25.811684769622353  279.68084195279505 26.29924162964393L 279.68084195279505 26.29924162964393L 279.9635695999876 46.11766904146228Q 280.02639796603034 50.52176402186635  281.77723665000264 52.12708763494449Q 283.5280753339749 53.73241124802262  288.12584257625 53.87571646726313ZM 334.14902644215795 66.39697813728682Q 328.83185397375337 64.99067911458916  326.06587327386956 60.58706119657327Q 323.29989257398586 56.18344327855738  324.7061915966835 50.866270810152805Q 326.11249061938116 45.549098341748234  331.5411894213681 43.20939124099688Q 336.96988822335487 40.8696841402455  347.9734010431193 41.50427505199908L 347.9734010431193 41.50427505199908L 355.0020026183499 41.91507901578952L 355.6412294468488 39.49818243924199Q 357.43106456664583 32.7308720249089  355.9646075885999 29.084709119670016Q 354.4981506105538 25.43854621443112  349.18097814214923 24.032247191733454L 349.18097814214923 24.032247191733454Q 341.83361254944475 22.08899763309669  341.0409712821061 25.08594938801562L 341.0409712821061 25.08594938801562Q 340.88755684326634 25.66600456638703  341.70248471261976 27.277957595402192Q 342.51741258197313 28.88991062441734  342.1210919483038 30.38838650187681Q 341.72477131463444 31.886862379336286  340.1767409684692 32.46010059103492Q 338.6287106223039 33.03333880273357  336.5018416349421 32.470819193654506Q 334.3749726475802 31.908299584575417  333.40224644706404 30.306330877381285Q 332.4295202465478 28.70436217018713  333.0176089287668 26.480817319763403L 333.0176089287668 26.480817319763403Q 334.32163165890466 21.55034830360644  339.95086629408735 19.62571394299158Q 345.58010092927015 17.70107958237675  351.18730098686035 19.184085824494275L 351.18730098686035 19.184085824494275Q 360.2748321146791 21.587578699650294  363.13188824812687 26.429038216193717Q 365.9889443815746 31.270497732737113  364.3013855543374 37.6511046948226L 364.3013855543374 37.6511046948226Q 364.2502474080575 37.84445642094641  357.8548117679198 60.461007947933375L 357.8548117679198 60.461007947933375Q 356.12171522390065 66.6226941107551  360.3754531986243 67.74773332891324L 360.3754531986243 67.74773332891324Q 362.11561873373853 68.20797664543248  364.59485431556186 67.8293066970325L 364.59485431556186 67.8293066970325Q 364.96475647931567 69.16840056575501  364.6962812113461 70.18349712790497Q 364.42780594337654 71.19859369005493  364.1833160709728 71.34080726989882L 364.1833160709728 71.34080726989882Q 362.96086670895426 72.05187516911828  360.3010639375771 72.33106903970739Q 357.64126116619997 72.61026291029651  354.9343370004667 71.89432886237769L 354.9343370004667 71.89432886237769Q 350.7772748888049 70.79485871735952  349.3544048095676 64.83285899095809L 349.3544048095676 64.83285899095809Q 341.88309548711004 68.44250398848342  334.14902644215795 66.39697813728682L 334.14902644215795 66.39697813728682ZM 348.4095438480957 46.8949873846753Q 340.4796900026701 46.76301015107469  337.5158585683625 47.99617811571284Q 334.5520271340548 49.22934608035099  333.69546318386625 52.46798749292469Q 332.8388992336777 55.70662890549839  334.0421142328528 58.19706534631756Q 335.24532923202787 60.687501787136725  337.75890167163726 61.35229768877561Q 340.27247411124677 62.01709359041452  343.90183572799185 61.78745418853117Q 347.53119734473694 61.55781478664784  350.33163001838386 60.74690366921827L 350.33163001838386 60.74690366921827L 353.76908667813404 46.96779296814836L 348.4095438480957 46.8949873846753ZM 388.64962768554693 85.31123352050781L 378.11429045155637 79.55218243842039L 366.5937635009893 74.19238218269646Q 366.46092528827575 73.78945041521831  367.0686357864962 72.58396795978702Q 367.67634628471666 71.37848550435574  368.4822098196731 71.11280907892872L 368.4822098196731 71.11280907892872Q 372.0540096876176 72.91343277735972  374.2236464398409 72.71932877584999Q 376.39328319206413 72.52522477434023  377.6537197809658 70.02496486677906L 377.6537197809658 70.02496486677906L 402.76947562118636 21.0927790523846Q 405.0652708366859 16.538734220755288  397.65378611070093 12.80244004651098L 397.65378611070093 12.80244004651098Q 397.5209478979874 12.399508279032801  398.1286583962078 11.194025823601521Q 398.7363688944283 9.988543368170212  399.5422324293847 9.722866942743195L 399.5422324293847 9.722866942743195Q 404.36563462755566 11.706497763909027  410.7173584047242 11.324915454896L 410.7173584047242 11.324915454896Q 411.6117807481562 11.32786020778775  412.5940257118409 11.823031724856264Q 413.5762706755257 12.318203241924778  413.93197828587427 12.945476783483855L 413.93197828587427 12.945476783483855L 393.5738876702601 56.66089907912733Q 394.9133126207393 57.33613296603896  398.0249639676356 56.273059170219355Q 401.1366153145319 55.209985374399764  404.2482666614283 54.146911578580145Q 407.3599180083246 53.083837782760554  408.90448978365754 52.5746246340254Q 410.4490615589905 52.06541148529023  411.8371830430452 51.53332244621322L 411.8371830430452 51.53332244621322Q 414.3448048328357 50.557703176534915  414.6599139800611 49.9326381996446L 414.6599139800611 49.9326381996446Q 415.1550854971297 48.95039323595985  411.58328562918507 47.149769537528854L 411.58328562918507 47.149769537528854Q 411.31760920375814 46.34390600257254  411.9253197019786 45.13842354714126Q 412.53303020019905 43.93294109170998  412.93596196767714 43.800102878996455L 412.93596196767714 43.800102878996455L 420.7917131124864 48.432291773118635L 430.52707631730414 52.668174593769066Q 430.6156351257798 52.936795772087834  429.96290903509856 54.231573224217726Q 429.3101829444173 55.52635067634762  428.63862999862033 55.74774769753684L 428.63862999862033 55.74774769753684Q 422.5665702231146 52.68668741020416  418.04428959593326 54.326497743450076L 418.04428959593326 54.326497743450076L 399.4171885423473 61.28646227924311Q 407.6952285701544 87.07335920962275  408.93910092404 89.60422498386662Q 410.18297327792567 92.13509075811048  413.66547814917163 93.8906988640807L 413.66547814917163 93.8906988640807Q 413.88687517036084 94.56225180987765  413.2341490796796 95.85702926200754Q 412.5814229889984 97.15180671413745  412.31280181067956 97.2403655226131L 412.31280181067956 97.2403655226131L 404.1884294875516 92.69673543696662L 393.38226251057347 87.69705992092887Q 393.2494242978599 87.29412815345071  393.85713479608035 86.08864569801942Q 394.4648452943008 84.88316324258814  395.27070882925716 84.61748681716112L 395.27070882925716 84.61748681716112Q 398.0388537269142 86.01297018344515  398.7365954100562 84.62889773461661Q 399.4343370931982 83.24482528578811  394.17244987112474 65.02580931724084L 394.17244987112474 65.02580931724084Q 393.37615678306656 62.384613126513855  391.32237185899845 61.34925449991606L 391.32237185899845 61.34925449991606L 385.5116794904438 73.98633700332722Q 384.34053789824077 76.5316125033492  385.3855210271676 78.3462778334468Q 386.43050415609446 80.16094316354445  390.002304024039 81.96156686197541L 390.002304024039 81.96156686197541Q 390.22370104522815 82.63311980777236  389.5709749545469 83.92789725990225Q 388.9182488638657 85.22267471203216  388.64962768554693 85.31123352050781L 388.64962768554693 85.31123352050781ZM 450.27676614849884 119.78487176071141L 450.27676614849884 119.78487176071141Q 440.5904874054934 120.96639794019322  432.4396337136279 114.58783351755051Q 424.28878002176253 108.2092690949078  424.2234755295098 99.20603438046808Q 424.1581710372571 90.2027996660284  430.84487866872314 81.65818492624678Q 437.53158630018925 73.11357018646513  446.27796749735023 70.94255292399387Q 455.0243486945113 68.77153566152265  462.7026891288773 74.78032823357739Q 470.38102956324326 80.78912080563214  469.8214453479844 89.04937900414097Q 469.2618611327257 97.30963720264987  462.60596782214196 105.8148758376399L 462.60596782214196 105.8148758376399L 438.114030641754 86.64836824882937Q 433.12211065881627 93.02729722507189  432.4974244810824 99.58586163958736Q 431.8727383033487 106.14442605410281  437.0703841358425 110.21191641057061L 437.0703841358425 110.21191641057061Q 444.15808299833424 115.75849416939036  451.8140088719051 116.0356205275537L 451.8140088719051 116.0356205275537Q 451.94413178494403 116.51839172336213  451.73872998303216 117.75443787936575Q 451.53332818112034 118.99048403536935  451.25599929317934 119.34486897849393Q 450.97867040523835 119.69925392161852  450.27676614849884 119.78487176071141ZM 441.39747222309984 82.61488199226554L 441.39747222309984 82.61488199226554L 452.43990513257205 91.38327269066639Q 458.4250730608984 96.06704946478087  459.1886059594026 95.90267941610475L 459.1886059594026 95.90267941610475Q 459.57550137780925 95.57054700995323  460.3150450789852 94.62552049495432L 460.3150450789852 94.62552049495432Q 463.2115912419244 90.924166644542  463.42716997023405 86.26760935273288Q 463.6427486985438 81.61105206092381  459.6657621145901 78.49880565180828Q 455.68877553063646 75.38655924269278  450.77374957906017 76.55596930564383Q 445.85872362748387 77.72537936859496  441.39747222309984 82.61488199226554ZM 469.6650055928394 148.5722186051963L 461.94783980654006 139.36323645586137L 452.8747239738849 130.45657776209626Q 452.8908214543401 130.03261918968263  453.8809475732949 129.1149317327762Q 454.87107369224975 128.1972442758698  455.71899083707706 128.22943923678022L 455.71899083707706 128.22943923678022Q 458.43806478346653 131.16314625590573  460.53907725167016 131.7382519926643Q 462.64008971987386 132.3133577294229  464.6936846332617 130.4100059669503L 464.6936846332617 130.4100059669503L 485.4335643131195 111.59651636865888Q 487.4871592265074 109.69316460618631  487.0730282943008 107.55459135025379Q 486.6588973620944 105.41601809432123  483.8718465670453 102.40896839971762L 483.8718465670453 102.40896839971762Q 483.88794404750047 101.985009827304  484.87807016645525 101.06732237039759Q 485.86819628541014 100.14963491349116  486.71611343023744 100.18182987440161L 486.71611343023744 100.18182987440161Q 486.98802082487634 100.47520057631414  488.1543589057287 101.43938701116673Q 489.32069698658097 102.40357344601932  489.629275718959 102.66295572360195Q 489.937854451337 102.9223380011847  490.90294489961923 103.59583664753393Q 491.8680353479016 104.26933529388324  492.5692671417725 104.43748395211304L 492.5692671417725 104.43748395211304Q 494.73557354522677 105.15659212641876  495.7954699762608 105.19683582755681Q 496.8553664072948 105.23707952869478  497.7390654398714 106.19053430991062Q 498.62276447244795 107.1439890911264  498.73725486249384 107.85595253863411L 498.73725486249384 107.85595253863411L 491.78938509936484 115.65897155402797Q 495.94667539436557 114.26006576624502  501.0467033803852 115.05518496599814Q 506.146731366405 115.85030416575117  509.2736664047527 119.22406723774552L 509.2736664047527 119.22406723774552Q 511.1090413185656 121.2043194756553  511.08311619790334 123.75075382354618Q 511.057191077241 126.29718817143711  509.26029552802663 127.96262096360061Q 507.4633999788123 129.6280537557641  505.4482553031429 129.58692060463636Q 503.43311062747364 129.54578745350858  501.93761995695945 127.93224859298954L 501.93761995695945 127.93224859298954Q 498.6747312212922 124.41180017003893  501.1683821875489 122.10058731560792L 501.1683821875489 122.10058731560792Q 501.82846626685216 121.48879567767031  502.6817492384977 121.37967111444286Q 503.53503221014336 121.2705465512154  503.7550602365778 121.0666160052362Q 503.9750882630122 120.86268545925697  503.49925032239406 120.34928673091002L 503.49925032239406 120.34928673091002Q 501.7998291059007 118.51571984395656  494.80362321108623 119.20535966108088Q 487.80741731627177 119.8949994782052  484.50163109293715 123.09527719203115L 484.50163109293715 123.09527719203115L 470.67564731531843 136.86416140902648Q 468.69002925059027 138.84085584697718  469.03618333413704 140.90608642743155Q 469.38233741768386 142.97131700788592  472.1014113640732 145.90502402701142L 472.1014113640732 145.90502402701142Q 472.07458222998116 146.61162164770076  471.01111343554817 147.59728595326692Q 469.9476446411152 148.5829502588331  469.6650055928394 148.5722186051963L 469.6650055928394 148.5722186051963ZM 518.5747089827175 130.9672504030077L 524.2387783962256 140.41597082849182L 531.2330173641258 149.6896228200165Q 531.1793530806249 149.96732795982547  529.9781389211264 150.77947606394238Q 528.7769247616282 151.5916241680593  528.0826619121056 151.45746345930706L 528.0826619121056 151.45746345930706Q 525.0021001378691 146.90113388879604  523.0138835980097 148.24537902664468L 523.0138835980097 148.24537902664468Q 522.4339871072175 148.63745052518388  521.7199299076728 149.72378487324556L 521.7199299076728 149.72378487324556L 503.3177815005939 177.49590999905902L 533.9861667905419 167.86626079946205Q 534.5952413536608 167.69588422665484  535.4236649119355 167.13578208588456L 535.4236649119355 167.13578208588456Q 537.6604085192773 165.62350630580482  534.8598978154259 161.48138851443122L 534.8598978154259 161.48138851443122Q 535.0208906659286 160.64827309500419  536.1392624695995 159.89213520496432Q 537.2576342732704 159.13599731492445  537.6741919829839 159.2164937401758L 537.6741919829839 159.2164937401758L 543.0582103261069 168.2510023865226L 548.6521939420812 175.4535954823604Q 548.5985296585803 175.73130062216939  547.397315499082 176.5434487262863Q 546.1961013395836 177.35559683040321  545.5018384900611 177.22143612165098L 545.5018384900611 177.22143612165098Q 543.7095116395963 174.57048073517188  542.1797874400706 173.91477968028047Q 540.650063240545 173.25907862538912  538.1309226322419 173.99659513069503L 538.1309226322419 173.99659513069503L 493.0862371031946 186.4656089485248Q 480.1568187077934 190.01668483572595  474.5000792057639 190.2199044365991L 474.5000792057639 190.2199044365991Q 465.8761173828151 190.49790169615838  462.68353518042454 185.77588741399242L 462.68353518042454 185.77588741399242Q 460.61115725957455 182.71072024837596  460.68395638051584 178.97980879298197Q 460.7567555014572 175.24889733758798  464.07044973455606 173.00848877450687L 464.07044973455606 173.00848877450687Q 465.81013920693294 171.83227427888932  467.7552481508841 172.38819801121375Q 469.70035709483517 172.94412174353823  470.84856648341423 174.6423900380014Q 471.9967758719933 176.34065833246456  471.7442164559402 178.0203052421938Q 471.49165703988706 179.69995215192301  470.2904428803887 180.5121002560399Q 469.0892287208904 181.3242483601568  468.1452658385974 181.17784454581746Q 467.2013029563044 181.0314407314781  466.86993353299454 181.2554815877862L 466.86993353299454 181.2554815877862Q 465.7929829072374 181.98361437078756  466.82917186766235 183.5161979535958Q 467.86536082808743 185.04878153640402  473.2041469776822 185.00017650688676Q 478.54293312727714 184.95157147736944  483.38869749047774 183.72741146481619Q 488.23446185367845 182.50325145226296  493.54810227951737 180.72133522951557L 493.54810227951737 180.72133522951557L 516.3989595703554 141.8537610696357Q 517.7150535412903 139.5154076618574  517.6899078175344 137.7820964686273Q 517.6647620937786 136.04878527539722  515.7604148151596 133.23214517726313L 515.7604148151596 133.23214517726313Q 515.9214076656623 132.3990297578361 517.0397794693331 131.64289186779624Q 518.158151273004 130.88675397775637 518.5747089827175 130.9672504030077L 518.5747089827175 130.9672504030077Z" data-textpath="Birch Bakery" data-text-anchor="middle" data-font-size="100" data-letterspacing="0" data-side="left" data-offset="0.5" data-dx="0" data-dy="0" data-xmlspace="preserve" data-href="" data-font="Esteban" data-font-src="/Content/clientfonts/esteban.woff" data-font-scale="contain" transform="translate(0,0)" data-x="0" data-y="0" fill="url('#linearGradientSjw521k8h21')"></path>
        </g>
      </svg>
    </g>
  </g>
</svg>