<?xml version="1.0" encoding="utf-8"?>
<!-- Generator: Adobe Illustrator 23.1.0, SVG Export Plug-In . SVG Version: 6.00 Build 0)  -->
<svg version="1.1"
	 id="Layer_1" xmlns:inkscape="http://www.inkscape.org/namespaces/inkscape" xmlns:ns1="http://www.inkscape.org/namespaces/inkscape" xmlns:sketch="http://www.bohemiancoding.com/sketch/ns" xmlns:sodipodi="http://sodipodi.sourceforge.net/DTD/sodipodi-0.dtd"
	 xmlns="http://www.w3.org/2000/svg" xmlns:xlink="http://www.w3.org/1999/xlink" x="0px" y="0px" viewBox="0 0 1000 1000"
	 style="enable-background:new 0 0 1000 1000;" xml:space="preserve">
<style type="text/css">
	.st0{fill:#006EB9;}
</style>
<g transform="matrix(1.4166,0,0,1.4166,-82.477,33.6828)">
	<g transform="matrix(-3.2976,0,0,3.2976,341.2507,101.9935)">
		<g>
			<path class="st0" d="M-22.2,33.8c-3.2,0-5.8,2.6-5.8,5.8s2.6,5.8,5.8,5.8s5.8-2.6,5.8-5.8S-19,33.8-22.2,33.8z M-22.2,35.4
				c2.3,0,4.2,1.9,4.2,4.2c0,2.3-1.9,4.2-4.2,4.2s-4.2-1.9-4.2-4.2C-26.4,37.3-24.5,35.4-22.2,35.4z M-34,43.2
				c-0.2,0-0.3,0.1-0.4,0.3l-6.1,6.3v-1c0-0.4-0.4-0.8-0.8-0.8h-3.3c-0.1,0-0.2,0-0.3,0c-0.3,0.1-0.6,0.5-0.6,0.8V55l-3.1,3.2
				c-0.4,0.3-0.4,0.9,0,1.2c0.3,0.3,1,0.3,1.2-0.1l1.9-1.9v17.2h-3.3v1.7h28.3v-1.7h-1.7V57.3l1.9,1.9c0.3,0.4,0.9,0.4,1.2,0.1
				c0.3-0.3,0.3-0.9,0-1.2l-14.1-14.7C-33.4,43.2-33.7,43.1-34,43.2L-34,43.2z M-33.9,45.2l10,10.4v19h-6.7V63.7
				c0-0.4-0.4-0.8-0.8-0.8h-5c-0.1,0-0.2,0-0.3,0c-0.3,0.1-0.6,0.5-0.6,0.8v10.8h-6.7v-19l2.9-3.1c0.1-0.1,0.2-0.2,0.3-0.3
				L-33.9,45.2z M-1.4,46.3c-2.8,0-5,2.2-5,5v12.5c0,2.5,1.8,4.5,4.2,4.9v5.9h-1.7v1.7h8.3v-1.7h-5v-5.9c2.4-0.4,4.2-2.4,4.2-4.9
				V51.3C3.6,48.5,1.4,46.3-1.4,46.3L-1.4,46.3z M-6.4,63.7c0-3.7-3-6.7-6.7-6.7s-6.7,3-6.7,6.7c0,3.4,2.5,6.2,5.8,6.6v4.2h-1.7v1.7
				h1.7h1.7h3.3v-1.7h-3.3v-4.2C-8.9,70-6.4,67.1-6.4,63.7L-6.4,63.7z M-1.4,47.9c1.9,0,3.3,1.5,3.3,3.3v1.8
				c-0.1-0.4-0.5-0.6-0.8-0.6c-0.2,0-0.4,0.1-0.6,0.3l-1.1,1.1v-2.5h-1.7v2.5l-1.1-1.1c-0.1-0.2-0.4-0.3-0.6-0.3
				c-0.4,0-0.7,0.3-0.8,0.6v-1.8C-4.7,49.4-3.2,47.9-1.4,47.9L-1.4,47.9z M-43.9,49.6h1.7v1.9l-1.7,1.8V49.6z M-33.9,49.6
				c-2.3,0-4.2,1.9-4.2,4.2s1.9,4.2,4.2,4.2s4.2-1.9,4.2-4.2C-29.7,51.5-31.6,49.6-33.9,49.6z M-33.9,51.3c1.4,0,2.5,1.1,2.5,2.5
				c0,1.4-1.1,2.5-2.5,2.5c-1.4,0-2.5-1.1-2.5-2.5C-36.4,52.4-35.3,51.3-33.9,51.3z M1.9,53.5v4.6c-0.1-0.4-0.5-0.6-0.8-0.6
				c-0.2,0-0.4,0.1-0.6,0.3l-1.1,1.1v-2.6c0,0,0-0.1,0-0.1l2.2-2.2C1.8,53.8,1.9,53.7,1.9,53.5L1.9,53.5z M-4.7,53.5
				c0.1,0.1,0.1,0.3,0.3,0.4l2.2,2.2c0,0,0,0.1,0.1,0.1v2.6l-1.1-1.1c-0.1-0.2-0.4-0.3-0.6-0.3c-0.4,0-0.7,0.3-0.8,0.6L-4.7,53.5z
				 M1.9,58.5v4.6c-0.1-0.4-0.5-0.6-0.8-0.6c-0.2,0-0.4,0.1-0.6,0.3l-1.1,1.1v-2.6c0,0,0-0.1,0-0.1l2.2-2.2
				C1.8,58.8,1.9,58.7,1.9,58.5L1.9,58.5z M-4.7,58.5c0.1,0.1,0.1,0.3,0.3,0.4l2.2,2.2c0,0,0,0.1,0.1,0.1v2.6l-1.1-1.1
				c-0.1-0.2-0.4-0.3-0.6-0.3c-0.4,0-0.7,0.3-0.8,0.6L-4.7,58.5z M-13,58.7c2.8,0,5,2.3,5,5.1c0,2.5-1.8,4.5-4.2,4.9v-0.4L-10,66
				c0.6-0.5,0-1.6-0.7-1.5c-0.2,0-0.3,0.1-0.5,0.3l-1.1,1.1v-3h-1.7v1.3l-1.9-1.9c-0.1-0.2-0.4-0.3-0.6-0.3c-0.7,0-1.1,1-0.6,1.5
				l3.1,3.1v1.1v0.6v0.4c-2.4-0.4-4.2-2.4-4.2-4.9C-18,61-15.8,58.7-13,58.7L-13,58.7z M1.9,63.5v0.3c0,1.6-1.1,2.9-2.5,3.2v-0.7
				c0,0,0-0.1,0-0.1l2.2-2.2C1.8,63.8,1.9,63.7,1.9,63.5L1.9,63.5z M-4.7,63.5c0.1,0.1,0.1,0.3,0.3,0.4l2.2,2.2c0,0,0,0.1,0.1,0.1
				V67c-1.4-0.4-2.5-1.7-2.5-3.2V63.5z M-35.5,64.6h3.3v10h-3.3V64.6z M-18.9,74.6v1.7h1.7v-1.7H-18.9z M-7.2,74.6v1.7h1.7v-1.7
				H-7.2z M-30.5,77.9v1.7h1.7v-1.7H-30.5z M-27.2,77.9v1.7h1.7v-1.7H-27.2z M-23.9,77.9v1.7h13.3v-1.7H-23.9z"/>
		</g>
	</g>
	<g transform="matrix(6.6877,0,0,6.6877,45.9617,0.7441)">
		<g>
			<path class="st0" d="M54.6,87.4c-26.2,0-47.5-17.2-47.5-38.3s21.3-38.3,47.5-38.3s47.5,17.2,47.5,38.3S80.8,87.4,54.6,87.4z
				 M54.6,14.1c-24.3,0-44.2,15.7-44.2,35s19.8,35,44.2,35s44.2-15.7,44.2-35S78.9,14.1,54.6,14.1z"/>
		</g>
	</g>
	<g transform="matrix(0.8469,0,0,0.7816,155.9353,231.0112)">
		<g>
			<path class="st0" d="M188.2,241.1c0,0-0.4,0.1-1.3,0.3c-0.4,0.1-0.9,0.2-1.5,0.4c-0.6,0.1-1.3,0.2-2.1,0.3
				c-0.8,0.1-1.7,0.1-2.7,0.1c-1,0.1-2.1-0.1-3.2-0.4c-0.3-0.1-0.6-0.1-0.9-0.2c-0.3-0.1-0.6-0.2-0.9-0.3c-0.3-0.1-0.5-0.2-0.9-0.3
				c-0.3-0.2-0.6-0.4-1-0.5c-1.3-0.8-2.3-1.8-3.3-2.8c-1-1.1-1.8-2.1-2.8-3.1l-0.7-0.7l-0.1-0.1l0,0l0,0c0,0-0.1-0.1,0.1,0.1
				l-0.2-0.2l-0.4-0.3c-0.6-0.4-1.2-1-1.8-1.3c-0.6-0.2-1.1-0.5-1.6-0.8c-0.6-0.1-1.2-0.3-1.8-0.4c-0.6,0-1.2-0.1-1.9,0
				c-0.6,0.2-1.3,0.1-1.9,0.4c-2.7,0.8-5.4,2.7-8.2,4.6c-2.9,2-5.8,4.2-9.4,6c-0.9,0.5-1.9,0.8-2.8,1.2c-1,0.3-2,0.5-3.2,0.8
				c-0.9,0.1-1.7,0.3-2.8,0.3c-1.1,0.1-2.1,0-3.1-0.1c-4.1-0.3-8-2.3-10.8-4.3c-0.8-0.5-1.2-0.8-1.8-1c-0.3-0.1-0.6-0.2-0.8-0.3
				c-0.3-0.1-0.5-0.2-0.8-0.2c-1.1-0.2-2.3,0-3.4,0.6c-1.4,0.6-2.8,1.3-3.9,2c-0.6,0.3-1.1,0.7-1.7,1c-0.6,0.4-1.1,0.8-1.7,1.2
				c-1.1,0.8-2.2,1.5-3.3,2.2l-0.8,0.5l-0.2,0.1l-0.2,0.1l-0.1,0.1l-0.4,0.2c-0.5,0.3-1,0.5-1.6,0.7c-2.4,0.9-4.4,0.9-6,0.8
				c-1.6-0.1-2.9-0.5-3.7-0.7c-0.8-0.2-1.3-0.3-1.3-0.3s0.5,0,1.3,0c0.8,0,2.1-0.1,3.6-0.2c1.5-0.2,3.3-0.7,5-1.7
				c0.4-0.2,0.9-0.6,1.3-0.9l0.4-0.3l0.1-0.1c-0.1,0.1,0,0,0,0l0.2-0.1l0.7-0.6c0.9-0.8,1.9-1.7,2.9-2.6c1.8-1.8,4.7-4.1,7.3-5.4
				c1.6-1,3.6-1.6,5.8-1.5c1.1,0,2.2,0.2,3.1,0.6c0.5,0.1,1,0.4,1.5,0.6c0.6,0.3,0.8,0.4,1.2,0.7l1.1,0.6c0.3,0.2,0.6,0.4,1,0.5
				c0.7,0.3,1.4,0.7,2.1,0.9c1.4,0.5,2.8,0.8,4.3,0.9c0.8,0.1,1.5,0.1,2.2,0c0.6,0,1.7-0.2,2.5-0.3c0.5-0.1,1.4-0.4,2-0.6
				c0.7-0.3,1.4-0.6,2.1-0.9c2.9-1.4,5.8-3.4,8.8-5.4c3-2,6.3-4,10.1-4.9c0.9-0.3,2-0.3,3-0.4c1,0,2.1,0.2,3,0.3
				c1,0.3,1.9,0.6,2.8,1c0.9,0.5,1.7,1,2.5,1.6c0.7,0.5,1.2,1,1.7,1.6l0.4,0.4l0.2,0.2c0.3,0.2,0.1,0.1,0.2,0.1l0,0l0.1,0.1l0.1,0.1
				l0.8,0.9c1,1.3,1.7,2.5,2.5,3.5c0.7,1,1.5,2,2.2,2.6l0.5,0.5c0.2,0.2,0.5,0.3,0.7,0.4c0.2,0.1,0.6,0.3,0.7,0.4
				c0.3,0.1,0.5,0.2,0.7,0.3c1,0.4,1.9,0.7,2.8,0.8c0.9,0.2,1.7,0.4,2.5,0.5c0.8,0.1,1.5,0.2,2.1,0.2c0.6,0,1.1,0,1.6,0
				C187.7,241.1,188.2,241.1,188.2,241.1z"/>
		</g>
	</g>
	<g transform="matrix(1.2446,0,0,0.7816,265.2197,213.5285)">
		<g>
			<path class="st0" d="M161.8,217.8c0,0-0.2,0-0.5,0.1c-0.2,0-0.4,0.1-0.6,0.1c-0.3,0-0.6,0-0.9,0c-0.3,0-0.7,0-1.1-0.1
				c-0.4,0-0.8-0.1-1.3-0.2c-0.1,0-0.2-0.1-0.4-0.1c-0.1-0.1-0.2-0.1-0.4-0.2c-0.1-0.1-0.2-0.1-0.3-0.2c-0.1-0.1-0.3-0.2-0.4-0.3
				c-0.5-0.3-0.9-0.8-1.3-1.2c-0.7-0.9-1.4-1.8-2.3-2.5c-0.9-0.7-1.9-0.9-3.1-0.6c-1.1,0.3-2.3,1-3.6,1.7c-1.2,0.7-2.5,1.6-4,2.2
				c-0.8,0.3-1.5,0.6-2.5,0.6c-0.4,0-0.7,0.1-1.2,0c-0.2,0-0.4,0-0.6,0l-0.6-0.1c-1.7-0.2-3.2-1.1-4.3-2c-1-0.8-1.8-0.9-2.9-0.6
				c-0.1,0.1-0.3,0.1-0.4,0.2l-0.4,0.2c-0.2,0.1-0.5,0.3-0.8,0.4c-0.5,0.3-1,0.6-1.5,0.8c-0.5,0.3-0.9,0.6-1.4,0.8
				c-0.1,0.1-0.2,0.1-0.3,0.2l-0.1,0l-0.1,0l0,0l-0.2,0.1c-0.2,0.1-0.4,0.2-0.7,0.3c-1,0.3-1.8,0.3-2.5,0.2
				c-0.7-0.1-1.2-0.2-1.5-0.4c-0.3-0.1-0.5-0.2-0.5-0.2s0.2,0,0.5,0.1c0.3,0,0.9,0,1.5,0c0.6,0,1.4-0.2,2.1-0.5
				c0.2-0.1,0.4-0.2,0.6-0.3l0.2-0.1l0,0c0,0,0,0,0,0l0.1-0.1l0.3-0.2c0.4-0.3,0.8-0.6,1.3-1c0.4-0.3,0.9-0.7,1.4-1.1
				c0.3-0.2,0.5-0.4,0.8-0.5c0.3-0.2,0.6-0.3,0.9-0.4c0.6-0.3,1.5-0.5,2.3-0.4c0.4,0,0.9,0.2,1.2,0.3c0.2,0.1,0.4,0.2,0.6,0.3
				c0.2,0.1,0.3,0.2,0.5,0.3l0.4,0.3c0.1,0.1,0.3,0.2,0.4,0.3c0.3,0.1,0.5,0.3,0.8,0.4c0.6,0.3,1.2,0.4,1.8,0.5l0.5,0.1
				c0.2,0,0.3,0,0.5,0c0.3,0,0.7,0,1-0.1c0.5-0.1,1.2-0.3,1.8-0.5c1.3-0.5,2.5-1.3,3.8-2c1.3-0.7,2.7-1.5,4.3-1.8
				c0.8-0.1,1.7-0.1,2.4,0.1c0.8,0.2,1.5,0.6,2,1.1c0.3,0.2,0.6,0.5,0.8,0.7c0.1,0.1,0.2,0.2,0.3,0.4l0.3,0.4
				c0.4,0.5,0.6,1.1,0.9,1.5c0.3,0.5,0.6,0.9,0.9,1.1l0.2,0.2c0.1,0.1,0.2,0.1,0.3,0.2c0.1,0.1,0.2,0.1,0.3,0.2
				c0.1,0,0.2,0.1,0.3,0.1c0.4,0.2,0.8,0.3,1.1,0.4c0.4,0.1,0.7,0.2,1,0.2c0.3,0.1,0.6,0.1,0.8,0.1c0.3,0,0.5,0,0.6,0
				C161.6,217.8,161.8,217.8,161.8,217.8z"/>
		</g>
	</g>
	<g transform="matrix(1.1319,0,0,0.7816,141.532,217.7469)">
		<g>
			<path class="st0" d="M116.7,224.2c0,0-0.3,0-0.7,0.1c-0.2,0-0.5,0.1-0.9,0.1c-0.4,0-0.8,0-1.2,0c-0.5,0-1,0-1.5-0.1
				c-0.6,0-1.2-0.2-1.8-0.3c-0.2,0-0.3-0.1-0.5-0.1c-0.2-0.1-0.3-0.1-0.5-0.2c-0.2-0.1-0.3-0.1-0.5-0.2c-0.2-0.1-0.3-0.2-0.5-0.3
				c-0.7-0.5-1.2-1.1-1.7-1.7c-1-1.3-1.9-2.5-3.2-3.4c-1.3-0.9-2.7-1.2-4.3-0.9c-1.6,0.3-3.2,1.3-4.9,2.4c-1.7,1-3.5,2.2-5.6,3.1
				c-1.1,0.4-2.1,0.8-3.5,0.9c-0.5,0-1,0.1-1.6,0.1c-0.3,0-0.6,0-0.9,0l-0.9-0.1c-2.3-0.3-4.5-1.6-6-2.8c-1.4-1.1-2.5-1.3-4.1-0.8
				c-0.2,0.1-0.4,0.1-0.6,0.2l-0.5,0.2c-0.3,0.1-0.7,0.4-1.1,0.5c-0.7,0.4-1.4,0.8-2,1.2c-0.7,0.4-1.3,0.8-1.9,1.2
				c-0.2,0.1-0.3,0.2-0.5,0.3l-0.1,0.1l-0.1,0.1l-0.1,0l-0.2,0.1c-0.3,0.1-0.6,0.3-1,0.4c-1.4,0.4-2.5,0.4-3.5,0.3
				c-0.9-0.1-1.6-0.3-2.1-0.5c-0.5-0.2-0.7-0.2-0.7-0.2s0.3,0,0.7,0.1c0.5,0,1.2,0.1,2.1,0c0.9-0.1,2-0.3,3-0.7
				c0.2-0.1,0.5-0.3,0.8-0.5l0.2-0.1l0.1,0c-0.1,0,0,0,0,0l0.1-0.1l0.4-0.3c0.6-0.4,1.1-0.9,1.7-1.4c0.6-0.5,1.3-1,2-1.5
				c0.4-0.2,0.7-0.5,1.2-0.7c0.4-0.2,0.9-0.5,1.3-0.6c0.9-0.4,2.1-0.7,3.3-0.6c0.6,0,1.2,0.2,1.7,0.5c0.3,0.1,0.5,0.3,0.8,0.4
				c0.3,0.2,0.4,0.3,0.7,0.4l0.6,0.4c0.2,0.1,0.4,0.3,0.6,0.4c0.4,0.2,0.8,0.4,1.2,0.6c0.8,0.4,1.6,0.6,2.5,0.7l0.7,0.1
				c0.2,0,0.4,0,0.6,0c0.4,0,1,0,1.5-0.1c0.7-0.1,1.7-0.4,2.5-0.7c1.7-0.7,3.5-1.8,5.3-2.8c1.8-1,3.7-2.1,5.9-2.5
				c1.1-0.2,2.3-0.2,3.4,0.1c1.1,0.3,2,0.9,2.8,1.6c0.4,0.3,0.8,0.7,1.1,1c0.2,0.2,0.3,0.3,0.5,0.5l0.4,0.6c0.5,0.7,0.9,1.5,1.3,2.1
				c0.4,0.6,0.8,1.2,1.2,1.6l0.3,0.3c0.1,0.1,0.3,0.2,0.4,0.3c0.1,0.1,0.2,0.2,0.4,0.2c0.1,0.1,0.3,0.1,0.4,0.2
				c0.5,0.2,1.1,0.5,1.6,0.6c0.5,0.1,1,0.3,1.4,0.3c0.4,0.1,0.8,0.1,1.2,0.2c0.4,0,0.7,0,0.9,0.1
				C116.4,224.2,116.7,224.2,116.7,224.2z"/>
		</g>
	</g>
	<g transform="matrix(1.221,0,0,1.0897,222.6527,237.4686)">
		<g>
			<path class="st0" d="M201,183.6c0,0-0.4,0.1-1.3,0.3c-0.4,0.1-0.9,0.2-1.5,0.4c-0.6,0.1-1.3,0.2-2.1,0.3
				c-0.8,0.1-1.7,0.1-2.7,0.1c-1,0.1-2.1-0.1-3.2-0.4c-0.3-0.1-0.6-0.1-0.9-0.2c-0.3-0.1-0.6-0.2-0.9-0.3c-0.3-0.1-0.5-0.2-0.9-0.3
				c-0.3-0.2-0.6-0.4-1-0.5c-1.3-0.8-2.3-1.8-3.3-2.8c-1-1.1-1.8-2.1-2.8-3.1l-0.7-0.7l-0.1-0.1l0,0l0,0c0,0-0.1-0.1,0.1,0.1
				l-0.2-0.2l-0.4-0.3c-0.6-0.4-1.2-1-1.8-1.3c-0.6-0.2-1.1-0.5-1.6-0.8c-0.6-0.1-1.2-0.3-1.8-0.4c-0.6,0-1.2-0.1-1.9,0
				c-0.6,0.2-1.3,0.1-1.9,0.4c-2.7,0.8-5.4,2.7-8.2,4.6c-2.9,2-5.8,4.2-9.4,6c-0.9,0.5-1.9,0.8-2.8,1.2c-1,0.3-2,0.5-3.2,0.8
				c-0.9,0.1-1.7,0.3-2.8,0.3c-1.1,0.1-2.1,0-3.1-0.1c-4.1-0.3-8-2.3-10.8-4.3c-0.8-0.5-1.2-0.8-1.8-1c-0.3-0.1-0.6-0.2-0.8-0.3
				c-0.3-0.1-0.5-0.2-0.8-0.2c-1.1-0.2-2.3,0-3.4,0.6c-1.4,0.6-2.8,1.3-3.9,2c-0.6,0.3-1.1,0.7-1.7,1c-0.6,0.4-1.1,0.8-1.7,1.2
				c-1.1,0.8-2.2,1.5-3.3,2.2l-0.8,0.5l-0.2,0.1l-0.2,0.1l-0.1,0.1l-0.4,0.2c-0.5,0.3-1,0.5-1.6,0.7c-2.4,0.9-4.4,0.9-6,0.8
				c-1.6-0.1-2.9-0.5-3.7-0.7c-0.8-0.2-1.3-0.3-1.3-0.3s0.5,0,1.3,0c0.8,0,2.1-0.1,3.6-0.2c1.5-0.2,3.3-0.7,5-1.7
				c0.4-0.2,0.9-0.6,1.3-0.9l0.4-0.3l0.1-0.1c-0.1,0.1,0,0,0,0l0.2-0.1l0.7-0.6c0.9-0.8,1.9-1.7,2.9-2.6c1.8-1.8,4.7-4.1,7.3-5.4
				c1.6-1,3.6-1.6,5.8-1.5c1.1,0,2.2,0.2,3.1,0.6c0.5,0.1,1,0.4,1.5,0.6c0.6,0.3,0.8,0.4,1.2,0.7l1.1,0.6c0.3,0.2,0.6,0.4,1,0.5
				c0.7,0.3,1.4,0.7,2.1,0.9c1.4,0.5,2.8,0.8,4.3,0.9c0.8,0.1,1.5,0.1,2.2,0c0.6,0,1.7-0.2,2.5-0.3c0.5-0.1,1.4-0.4,2-0.6
				c0.7-0.3,1.4-0.6,2.1-0.9c2.9-1.4,5.8-3.4,8.8-5.4c3-2,6.3-4,10.1-4.9c0.9-0.3,2-0.3,3-0.4c1,0,2.1,0.2,3,0.3
				c1,0.3,1.9,0.6,2.8,1c0.9,0.5,1.7,1,2.5,1.6c0.7,0.5,1.2,1,1.7,1.6l0.4,0.4l0.2,0.2c0.3,0.2,0.1,0.1,0.2,0.1l0,0l0.1,0.1l0.1,0.1
				l0.8,0.9c1,1.3,1.7,2.5,2.5,3.5c0.7,1,1.5,2,2.2,2.6l0.5,0.5c0.2,0.2,0.5,0.3,0.7,0.4c0.2,0.1,0.6,0.3,0.7,0.4
				c0.3,0.1,0.5,0.2,0.7,0.3c1,0.4,1.9,0.7,2.8,0.8c0.9,0.2,1.7,0.4,2.5,0.5c0.8,0.1,1.5,0.2,2.1,0.2c0.6,0,1.1,0,1.6,0
				C200.6,183.6,201,183.6,201,183.6z"/>
		</g>
	</g>
	<g transform="matrix(1.6298,0,0,1.0897,185.4783,207.3722)">
		<g>
			<path class="st0" d="M103,156.8c0,0-0.2,0-0.5,0.1c-0.2,0-0.4,0.1-0.6,0.1c-0.3,0-0.6,0-0.9,0c-0.3,0-0.7,0-1.1-0.1
				c-0.4,0-0.8-0.1-1.3-0.2c-0.1,0-0.2-0.1-0.4-0.1c-0.1-0.1-0.2-0.1-0.4-0.2c-0.1-0.1-0.2-0.1-0.3-0.2c-0.1-0.1-0.3-0.2-0.4-0.3
				c-0.5-0.3-0.9-0.8-1.3-1.2c-0.7-0.9-1.4-1.8-2.3-2.5c-0.9-0.7-1.9-0.9-3.1-0.6c-1.1,0.3-2.3,1-3.6,1.7c-1.2,0.7-2.5,1.6-4,2.2
				c-0.8,0.3-1.5,0.6-2.5,0.6c-0.4,0-0.7,0.1-1.2,0c-0.2,0-0.4,0-0.6,0l-0.6-0.1c-1.7-0.2-3.2-1.1-4.3-2c-1-0.8-1.8-0.9-2.9-0.6
				c-0.1,0.1-0.3,0.1-0.4,0.2l-0.4,0.2c-0.2,0.1-0.5,0.3-0.8,0.4c-0.5,0.3-1,0.6-1.5,0.8c-0.5,0.3-0.9,0.6-1.4,0.8
				c-0.1,0.1-0.2,0.1-0.3,0.2l-0.1,0l-0.1,0l0,0l-0.2,0.1c-0.2,0.1-0.4,0.2-0.7,0.3c-1,0.3-1.8,0.3-2.5,0.2
				c-0.7-0.1-1.2-0.2-1.5-0.3c-0.3-0.1-0.5-0.2-0.5-0.2s0.2,0,0.5,0c0.3,0,0.9,0,1.5,0c0.6,0,1.4-0.2,2.1-0.5
				c0.2-0.1,0.4-0.2,0.6-0.3l0.2-0.1l0,0c0,0,0,0,0,0l0.1-0.1l0.3-0.2c0.4-0.3,0.8-0.6,1.3-1c0.4-0.3,0.9-0.7,1.4-1.1
				c0.3-0.2,0.5-0.4,0.8-0.5c0.3-0.2,0.6-0.3,0.9-0.4c0.6-0.3,1.5-0.5,2.3-0.4c0.4,0,0.9,0.2,1.2,0.3c0.2,0.1,0.4,0.2,0.6,0.3
				c0.2,0.1,0.3,0.2,0.5,0.3l0.4,0.3c0.1,0.1,0.3,0.2,0.4,0.3c0.3,0.1,0.5,0.3,0.8,0.4c0.6,0.3,1.2,0.4,1.8,0.5l0.5,0.1
				c0.2,0,0.3,0,0.5,0c0.3,0,0.7,0,1-0.1c0.5-0.1,1.2-0.3,1.8-0.5c1.3-0.5,2.5-1.3,3.8-2c1.3-0.7,2.7-1.5,4.3-1.8
				c0.8-0.1,1.7-0.1,2.5,0.1c0.8,0.2,1.5,0.6,2,1.1c0.3,0.2,0.6,0.5,0.8,0.7c0.1,0.1,0.2,0.2,0.3,0.4l0.3,0.4
				c0.4,0.5,0.6,1.1,0.9,1.5c0.3,0.5,0.6,0.9,0.9,1.1l0.2,0.2c0.1,0.1,0.2,0.1,0.3,0.2c0.1,0.1,0.2,0.1,0.3,0.2
				c0.1,0,0.2,0.1,0.3,0.1c0.4,0.2,0.8,0.3,1.1,0.4c0.4,0.1,0.7,0.2,1,0.2c0.3,0.1,0.6,0.1,0.8,0.1c0.3,0,0.5,0,0.6,0
				C102.8,156.8,103,156.8,103,156.8z"/>
		</g>
	</g>
	<g transform="matrix(1.1997,0,0,1.0897,220.0061,224.2825)">
		<g>
			<path class="st0" d="M157.5,169.9c0,0-0.3,0-0.7,0.1c-0.2,0-0.5,0.1-0.9,0.1c-0.4,0-0.8,0-1.2,0c-0.5,0-1,0-1.5-0.1
				c-0.6,0-1.2-0.2-1.8-0.3c-0.2,0-0.3-0.1-0.5-0.1c-0.2-0.1-0.3-0.1-0.5-0.2c-0.2-0.1-0.3-0.1-0.5-0.2c-0.2-0.1-0.4-0.2-0.5-0.3
				c-0.7-0.5-1.2-1.1-1.7-1.7c-1-1.3-1.9-2.5-3.2-3.4c-1.3-0.9-2.7-1.2-4.3-0.9c-1.6,0.3-3.2,1.3-4.9,2.4c-1.7,1-3.5,2.2-5.6,3.1
				c-1.1,0.4-2.1,0.8-3.5,0.9c-0.5,0-1,0.1-1.6,0.1c-0.3,0-0.6,0-0.9,0l-0.9-0.1c-2.3-0.3-4.5-1.6-6-2.8c-1.4-1.1-2.5-1.3-4.1-0.8
				c-0.2,0.1-0.4,0.1-0.6,0.2l-0.5,0.2c-0.3,0.1-0.7,0.4-1.1,0.5c-0.7,0.4-1.4,0.8-2,1.2c-0.7,0.4-1.3,0.8-1.9,1.2
				c-0.2,0.1-0.3,0.2-0.5,0.3l-0.1,0.1l-0.1,0.1l-0.1,0l-0.2,0.1c-0.3,0.1-0.6,0.3-1,0.4c-1.4,0.4-2.5,0.4-3.5,0.3
				c-0.9-0.1-1.6-0.3-2.1-0.5c-0.5-0.2-0.7-0.2-0.7-0.2s0.3,0,0.7,0.1c0.5,0,1.2,0.1,2.1,0c0.9-0.1,2-0.3,3-0.7
				c0.2-0.1,0.5-0.3,0.8-0.5l0.2-0.1l0.1,0c-0.1,0,0,0,0,0l0.1-0.1l0.4-0.3c0.6-0.4,1.1-0.9,1.7-1.4c0.6-0.5,1.3-1,2-1.5
				c0.4-0.2,0.7-0.5,1.2-0.7c0.4-0.2,0.9-0.5,1.3-0.6c0.9-0.4,2.1-0.7,3.3-0.6c0.6,0,1.2,0.2,1.7,0.5c0.3,0.1,0.5,0.3,0.8,0.4
				c0.3,0.2,0.4,0.3,0.7,0.4l0.6,0.4c0.2,0.1,0.4,0.3,0.6,0.4c0.4,0.2,0.8,0.4,1.2,0.6c0.8,0.4,1.6,0.6,2.5,0.7l0.7,0.1
				c0.2,0,0.4,0,0.6,0c0.4,0,1,0,1.5-0.1c0.7-0.1,1.7-0.4,2.5-0.7c1.7-0.7,3.5-1.8,5.3-2.8c1.8-1,3.7-2.1,5.9-2.5
				c1.1-0.2,2.3-0.2,3.4,0.1c1.1,0.3,2,0.9,2.8,1.6c0.4,0.3,0.8,0.7,1.1,1c0.2,0.2,0.3,0.3,0.5,0.5l0.4,0.6c0.5,0.7,0.9,1.5,1.3,2.1
				c0.4,0.6,0.8,1.2,1.2,1.6l0.3,0.3c0.1,0.1,0.3,0.2,0.4,0.3c0.1,0.1,0.2,0.2,0.4,0.2c0.1,0.1,0.3,0.1,0.4,0.2
				c0.5,0.2,1.1,0.5,1.6,0.6c0.5,0.1,1,0.3,1.4,0.3c0.4,0.1,0.8,0.1,1.2,0.2c0.4,0,0.7,0,0.9,0.1
				C157.3,169.9,157.5,169.9,157.5,169.9z"/>
		</g>
	</g>
	<g transform="matrix(0.908,0,0,0.7871,304.7675,225.948)">
		<g>
			<path class="st0" d="M292.3,235.3c0,0-0.4,0.1-1.3,0.3c-0.4,0.1-0.9,0.2-1.5,0.4c-0.6,0.1-1.3,0.2-2.1,0.3
				c-0.8,0.1-1.7,0.1-2.7,0.1c-1,0.1-2.1-0.1-3.2-0.4c-0.3,0-0.6-0.1-0.9-0.2c-0.3-0.1-0.6-0.2-0.9-0.3c-0.3-0.1-0.5-0.2-0.9-0.3
				c-0.3-0.2-0.6-0.4-1-0.5c-1.3-0.8-2.3-1.8-3.3-2.8c-1-1.1-1.8-2.1-2.8-3.1l-0.7-0.7l-0.1-0.1l0,0l0,0c0,0-0.1-0.1,0.1,0.1
				l-0.2-0.2l-0.4-0.3c-0.6-0.4-1.2-1-1.8-1.3c-0.6-0.2-1.1-0.5-1.6-0.8c-0.6-0.1-1.2-0.3-1.8-0.4c-0.6,0-1.2-0.1-1.9,0
				c-0.6,0.2-1.3,0.1-1.9,0.4c-2.7,0.8-5.4,2.7-8.2,4.6c-2.9,2-5.8,4.2-9.4,6c-0.9,0.5-1.9,0.8-2.8,1.2c-1,0.3-2,0.5-3.2,0.8
				c-0.9,0.1-1.7,0.3-2.8,0.3c-1.1,0.1-2.1,0-3.1-0.1c-4.1-0.3-8-2.3-10.8-4.3c-0.8-0.5-1.2-0.8-1.8-1c-0.3-0.1-0.6-0.2-0.8-0.3
				c-0.3-0.1-0.5-0.2-0.8-0.2c-1.1-0.2-2.3,0-3.4,0.6c-1.4,0.6-2.8,1.3-3.9,2c-0.6,0.3-1.1,0.7-1.7,1c-0.6,0.4-1.1,0.8-1.7,1.2
				c-1.1,0.8-2.2,1.5-3.3,2.2l-0.8,0.5l-0.2,0.1l-0.2,0.1l-0.1,0.1l-0.4,0.2c-0.5,0.3-1,0.5-1.6,0.7c-2.4,0.9-4.4,0.9-6,0.8
				c-1.6-0.1-2.9-0.5-3.7-0.7c-0.8-0.2-1.3-0.3-1.3-0.3s0.5,0,1.3,0c0.8,0,2.1-0.1,3.6-0.2c1.5-0.2,3.3-0.7,5-1.7
				c0.4-0.2,0.9-0.6,1.3-0.9l0.4-0.3l0.1-0.1c-0.1,0.1,0,0,0,0l0.2-0.2l0.7-0.6c0.9-0.8,1.9-1.7,2.9-2.6c1.8-1.8,4.7-4.1,7.3-5.4
				c1.6-1,3.6-1.6,5.8-1.5c1.1,0,2.2,0.2,3.1,0.6c0.5,0.1,1,0.4,1.5,0.6c0.6,0.3,0.8,0.4,1.2,0.7l1.1,0.6c0.3,0.2,0.6,0.4,1,0.5
				c0.7,0.3,1.4,0.7,2.1,0.9c1.4,0.5,2.8,0.8,4.3,0.9c0.8,0.1,1.5,0.1,2.2,0c0.6,0,1.7-0.2,2.5-0.3c0.5-0.1,1.4-0.4,2-0.6
				c0.7-0.3,1.4-0.6,2.1-0.9c2.9-1.4,5.8-3.4,8.8-5.4c3-2,6.3-4,10.1-4.9c0.9-0.3,2-0.3,3-0.4c1,0,2.1,0.2,3,0.3
				c1,0.3,1.9,0.6,2.8,1c0.9,0.5,1.7,1,2.5,1.6c0.7,0.5,1.2,1,1.7,1.6l0.4,0.4l0.2,0.2c0.3,0.2,0.1,0.1,0.2,0.1l0,0l0.1,0.1l0.1,0.1
				l0.8,0.9c1,1.3,1.7,2.5,2.5,3.5c0.7,1,1.5,2,2.2,2.6l0.5,0.5c0.2,0.2,0.5,0.3,0.7,0.4c0.2,0.1,0.6,0.3,0.7,0.4
				c0.3,0.1,0.5,0.2,0.7,0.3c1,0.4,1.9,0.7,2.8,0.8c0.9,0.2,1.7,0.4,2.5,0.5c0.8,0.1,1.5,0.2,2.1,0.2c0.6,0,1.1,0,1.6,0
				C291.8,235.3,292.3,235.3,292.3,235.3z"/>
		</g>
	</g>
	<g transform="matrix(1.2122,0,0,0.7871,363.7858,219.4901)">
		<g>
			<path class="st0" d="M219,221.4c0,0-0.2,0-0.5,0.1c-0.2,0-0.4,0.1-0.6,0.1c-0.3,0-0.6,0-0.9,0c-0.3,0-0.7,0-1.1-0.1
				c-0.4,0-0.8-0.1-1.3-0.2c-0.1,0-0.2-0.1-0.4-0.1c-0.1-0.1-0.2-0.1-0.4-0.2c-0.1-0.1-0.2-0.1-0.3-0.2c-0.1-0.1-0.3-0.2-0.4-0.3
				c-0.5-0.3-0.9-0.8-1.3-1.2c-0.7-0.9-1.4-1.8-2.3-2.5c-0.9-0.7-1.9-0.9-3.1-0.6c-1.1,0.3-2.3,1-3.6,1.7c-1.2,0.7-2.5,1.6-4,2.2
				c-0.8,0.3-1.5,0.6-2.5,0.6c-0.4,0-0.7,0.1-1.2,0c-0.2,0-0.4,0-0.7,0l-0.6-0.1c-1.7-0.2-3.2-1.1-4.3-2c-1-0.8-1.8-0.9-2.9-0.6
				c-0.1,0.1-0.3,0.1-0.4,0.2l-0.4,0.2c-0.2,0.1-0.5,0.3-0.8,0.4c-0.5,0.3-1,0.6-1.5,0.8c-0.5,0.3-0.9,0.6-1.4,0.8
				c-0.1,0.1-0.2,0.1-0.3,0.2l-0.1,0l-0.1,0l0,0l-0.2,0.1c-0.2,0.1-0.4,0.2-0.7,0.3c-1,0.3-1.8,0.3-2.5,0.2
				c-0.7-0.1-1.2-0.2-1.5-0.3c-0.3-0.1-0.5-0.2-0.5-0.2s0.2,0,0.5,0.1c0.3,0,0.9,0,1.5,0c0.6,0,1.4-0.2,2.1-0.5
				c0.2-0.1,0.4-0.2,0.6-0.3l0.2-0.1l0,0c0,0,0,0,0,0l0.1-0.1l0.3-0.2c0.4-0.3,0.8-0.6,1.3-1c0.4-0.3,0.9-0.7,1.4-1.1
				c0.3-0.2,0.5-0.4,0.8-0.5c0.3-0.2,0.6-0.3,0.9-0.4c0.6-0.3,1.5-0.5,2.3-0.4c0.4,0,0.9,0.2,1.2,0.3c0.2,0.1,0.4,0.2,0.6,0.3
				c0.2,0.1,0.3,0.2,0.5,0.3l0.4,0.3c0.1,0.1,0.3,0.2,0.4,0.3c0.3,0.1,0.5,0.3,0.8,0.4c0.6,0.3,1.2,0.4,1.8,0.5l0.5,0.1
				c0.2,0,0.3,0,0.5,0c0.3,0,0.7,0,1-0.1c0.5-0.1,1.2-0.3,1.8-0.5c1.3-0.5,2.5-1.3,3.8-2c1.3-0.7,2.7-1.5,4.3-1.8
				c0.8-0.1,1.7-0.1,2.4,0.1c0.8,0.2,1.5,0.6,2,1.1c0.3,0.2,0.6,0.5,0.8,0.7c0.1,0.1,0.2,0.2,0.3,0.4l0.3,0.4
				c0.4,0.5,0.6,1.1,0.9,1.5c0.3,0.5,0.6,0.9,0.9,1.1l0.2,0.2c0.1,0.1,0.2,0.1,0.3,0.2c0.1,0.1,0.2,0.1,0.3,0.2
				c0.1,0,0.2,0.1,0.3,0.1c0.4,0.2,0.8,0.3,1.1,0.4c0.4,0.1,0.7,0.2,1,0.2c0.3,0.1,0.6,0.1,0.8,0.1c0.3,0,0.5,0,0.6,0
				C218.8,221.4,219,221.4,219,221.4z"/>
		</g>
	</g>
	<g transform="matrix(1.3616,0,0,0.7871,304.3635,208.7029)">
		<g>
			<path class="st0" d="M188.1,215.1c0,0-0.3,0-0.7,0.1c-0.2,0-0.5,0.1-0.9,0.1c-0.4,0-0.8,0-1.2,0c-0.5,0-1,0-1.5-0.1
				c-0.6,0-1.2-0.2-1.8-0.3c-0.2,0-0.3-0.1-0.5-0.1c-0.2-0.1-0.3-0.1-0.5-0.2c-0.2-0.1-0.3-0.1-0.5-0.2c-0.2-0.1-0.4-0.2-0.5-0.3
				c-0.7-0.5-1.2-1.1-1.7-1.7c-1-1.3-1.9-2.5-3.2-3.4c-1.3-0.9-2.7-1.2-4.3-0.9c-1.6,0.3-3.2,1.3-4.9,2.4c-1.7,1-3.5,2.2-5.6,3.1
				c-1.1,0.4-2.1,0.8-3.5,0.9c-0.5,0-1,0.1-1.6,0.1c-0.3,0-0.6,0-0.9,0l-0.9-0.1c-2.3-0.3-4.5-1.6-6-2.8c-1.4-1.1-2.5-1.3-4.1-0.8
				c-0.2,0.1-0.4,0.1-0.6,0.2l-0.5,0.2c-0.3,0.1-0.7,0.4-1.1,0.5c-0.7,0.4-1.4,0.8-2,1.2c-0.7,0.4-1.3,0.8-1.9,1.2
				c-0.2,0.1-0.3,0.2-0.5,0.3l-0.1,0.1l-0.1,0.1l-0.1,0l-0.2,0.1c-0.3,0.1-0.6,0.3-1,0.4c-1.4,0.4-2.5,0.4-3.5,0.3
				c-0.9-0.1-1.6-0.3-2.1-0.5c-0.5-0.2-0.7-0.2-0.7-0.2s0.3,0,0.7,0.1c0.5,0,1.2,0.1,2.1,0c0.9-0.1,2-0.3,3-0.7
				c0.2-0.1,0.5-0.3,0.8-0.5l0.2-0.1l0.1,0c-0.1,0,0,0,0,0l0.1-0.1l0.4-0.3c0.6-0.4,1.1-0.9,1.7-1.4c0.6-0.5,1.3-1,2-1.5
				c0.4-0.2,0.7-0.5,1.2-0.7c0.4-0.2,0.9-0.5,1.3-0.6c0.9-0.4,2.1-0.7,3.3-0.6c0.6,0,1.2,0.2,1.7,0.5c0.3,0.1,0.5,0.3,0.8,0.4
				c0.3,0.2,0.4,0.3,0.7,0.4l0.6,0.4c0.2,0.1,0.4,0.3,0.6,0.4c0.4,0.2,0.8,0.4,1.2,0.6c0.8,0.4,1.6,0.6,2.5,0.7l0.7,0.1
				c0.2,0,0.4,0,0.6,0c0.4,0,1,0,1.5-0.1c0.7-0.1,1.7-0.4,2.5-0.7c1.7-0.7,3.5-1.8,5.3-2.8c1.8-1,3.7-2.1,5.9-2.5
				c1.1-0.2,2.3-0.2,3.4,0.1c1.1,0.3,2,0.9,2.8,1.6c0.4,0.3,0.8,0.7,1.1,1c0.2,0.2,0.3,0.3,0.5,0.5l0.4,0.6c0.5,0.7,0.9,1.5,1.3,2.1
				c0.4,0.6,0.8,1.2,1.2,1.6l0.3,0.3c0.1,0.1,0.3,0.2,0.4,0.3c0.1,0.1,0.2,0.2,0.4,0.2c0.1,0.1,0.3,0.1,0.4,0.2
				c0.5,0.2,1.1,0.5,1.6,0.6c0.5,0.1,1,0.3,1.4,0.3c0.4,0.1,0.8,0.1,1.2,0.2c0.4,0,0.7,0,0.9,0.1
				C187.9,215.1,188.1,215.1,188.1,215.1z"/>
		</g>
	</g>
	<g transform="matrix(0.5,0,0,0.5,134.183,78.365)">
		<g>
			<path class="st0" d="M103.1,403.9l9.7-13l11.9-20.1c5.6-8.7,12.3-14.4,19.9-17.1c7.6-2.8,15.1-1.8,22.2,2.9l0,0
				c10.6,6.9,13.5,18.6,8.8,35l0,0c5-7.6,11.5-12.5,19.6-14.5c8.1-2.1,15.9-0.7,23.3,4.2l0,0c18.3,12,19.7,29.9,4.2,53.7l0,0
				l-11.9,16.3l-10.1,17.3c-0.5,0.1-1.4-0.3-2.7-1.2c-1.3-0.9-2.1-1.8-2.3-2.7l0,0c2.2-3.3,3.2-6.1,2.9-8.3
				c-0.2-2.2-1.6-4.1-4.1-5.8l0,0L122,402.1c-2.5-1.6-4.8-2.1-6.8-1.5c-2,0.7-4.2,2.7-6.4,6.2l0,0c-0.8,0.3-2-0.1-3.4-1
				C103.9,404.8,103.1,404.2,103.1,403.9L103.1,403.9z M160,412.4l4.1-6.3c4.7-7.3,6.9-14.2,6.6-20.9c-0.4-6.7-3.5-11.9-9.5-15.8
				l0,0c-11.9-7.8-22.8-4-32.8,11.2l0,0c-1.9,3-3.7,6.3-5.4,10l0,0L160,412.4z M215.2,429.3L215.2,429.3c4.4-6.8,6.3-13.4,5.7-19.7
				s-4.1-11.6-10.4-15.8c-6.3-4.1-12.8-4.7-19.5-1.8c-6.6,3-12.4,8.1-17.2,15.5l0,0c-1.9,2.9-3.6,6.2-5.3,9.9l0,0l28.5,16.8
				c4.2,2.5,7.6,3.4,10.1,2.6C209.8,436.1,212.5,433.6,215.2,429.3z M197.6,301c2.1,1.9,3.2,4,3.2,6.4c0,2.4-0.9,4.7-2.8,6.8
				c-1.9,2.1-4,3.2-6.5,3.3c-2.4,0.1-4.7-0.8-6.7-2.6c-2-1.8-3.2-3.9-3.4-6.4s0.5-4.7,2.3-6.7s4-3.1,6.7-3.3S195.5,299.1,197.6,301z
				 M282.2,359.4l-14,14.3l-13.3,16.5c-0.5,0-1.3-0.5-2.4-1.5c-1.1-1-1.7-2-1.8-2.9l0,0c3-3.3,4.6-6.2,5-8.6s-0.5-4.6-2.9-6.7l0,0
				l-33.7-30.1c-4.2-3.8-9.4-2.2-15.5,4.7l0,0c-0.5,0-1.3-0.5-2.4-1.5c-1.1-1-1.7-2-1.8-2.9l0,0c2.3-2.6,4.2-5.3,5.6-8.2
				c1.4-2.9,2.3-4.9,2.5-6.1c0.2-1.2,0.3-2.3,0.3-3.3c-0.1-1,0.4-2.1,1.3-3.1s1.8-1.7,2.6-1.9l0,0l50.7,41.5c2.4,2,4.7,2.7,7,2.1
				c2.2-0.6,4.8-2.6,7.8-5.9l0,0c0.8,0,1.8,0.5,3,1.5C281.6,358.4,282.2,359.1,282.2,359.4L282.2,359.4z M319,326.2l-15.8,12.3
				l-15.4,14.6c-0.5,0-1.2-0.6-2.2-1.8c-1-1.1-1.4-2.2-1.4-3.1l0,0c3.4-2.9,5.4-5.5,6.1-7.8c0.7-2.3,0.1-4.6-2-7l0,0l-30.2-35.6
				c-2-2.4-4.2-3.3-6.6-3c-2.4,0.4-5.3,2.1-8.8,5l0,0c-0.5,0-1.2-0.6-2.2-1.8s-1.4-2.2-1.4-3.1l0,0c0.3-0.3,1.1-1.1,2.2-2.3
				s1.8-2.1,2.1-2.4c0.3-0.3,0.8-1,1.6-2.1c0.8-1,1.3-2,1.5-2.7l0,0c0.9-2.4,1.4-4.2,1.4-5.3s0.7-2.2,1.8-3.2s2-1.5,2.8-1.6l0,0
				l12.6,12c-1.4-4.7-1.6-9.8-0.5-15.5c1.1-5.6,3.5-10.1,7.4-13.5l0,0c2.3-2,4.8-2.9,7.6-2.8s5.1,1.2,6.9,3.3
				c1.8,2.1,2.6,4.2,2.5,6.4c-0.1,2.2-1.1,4.2-3,5.8l0,0c-4,3.5-7.3,3.8-9.8,0.9l0,0c-0.7-0.8-1-1.6-1.1-2.6c-0.1-1-0.2-1.6-0.5-1.8
				c-0.2-0.3-0.6-0.1-1.2,0.4l0,0c-2.1,1.8-2.9,6.6-2.4,14.4c0.5,7.8,2.5,13.6,5.9,17.4l0,0l22.1,23.8c2.1,2.3,4.3,3.3,6.6,3
				s5.1-1.9,8.5-4.8l0,0c0.8,0.1,1.7,0.7,2.8,1.9C318.5,325.1,319,325.9,319,326.2L319,326.2z M389,267.7L389,267.7
				c-2.1,10.2-8,18.2-17.5,24s-18.8,6.9-27.6,3.3s-16.4-10.6-22.7-21c-6.3-10.4-8.7-20.7-7.2-30.9c1.5-10.2,7.1-18.3,16.9-24.2l0,0
				c6.2-3.7,12.2-5.2,18-4.4s10.1,3.5,12.9,8.2l0,0c1.3,2.2,1.7,4.3,1.2,6.3c-0.5,2-1.8,3.6-3.9,4.9c-2.1,1.3-4.1,1.9-6,1.7
				c-1.8-0.1-3.2-0.9-4.1-2.4c-0.9-1.5-1.2-3.2-0.8-5.2c0.4-2,0.4-3.2,0-3.8l0,0c-0.7-1.2-2.6-1.6-5.5-1.1c-3,0.5-5.6,1.4-7.9,2.8
				l0,0c-5.6,3.4-8.8,8.4-9.6,15.1s1.3,14,6.1,22l0,0c12,19.9,24.1,26.1,36.3,18.8l0,0c3.5-2.1,6.8-4.9,9.9-8.4
				c3.1-3.5,5.2-6.9,6.5-10.2l0,0c0.6,0.1,1.4,0.4,2.6,1.1c1.2,0.7,1.9,1.3,2.2,1.7C389.1,266.3,389.2,266.9,389,267.7z
				 M385.4,142.3l20.3,56c6.1-12.2,13.4-19.8,22.1-22.7l0,0c7.2-2.4,13.7-2.1,19.6,1c5.9,3.1,10.2,8.2,12.9,15.5l0,0l14.3,38.6
				c1.1,2.9,2.7,4.7,4.9,5.3c2.2,0.6,5.4,0.2,9.6-1.2l0,0c0.7,0.3,1.3,1.3,1.8,2.8c0.5,1.5,0.7,2.4,0.6,2.7l0,0l-19.1,5.4l-18.9,7.4
				c-0.4-0.2-0.9-1-1.4-2.4c-0.5-1.4-0.5-2.6-0.1-3.4l0,0c4-1.3,6.7-2.9,8-4.7s1.5-4.2,0.7-7.2l0,0L449,199
				c-1.7-5.3-4.5-9.1-8.6-11.4s-8.7-2.5-14-0.7l0,0c-5.3,1.8-10.1,6.8-14.7,15l0,0c-1.4,2.6-2.2,4-2.4,4.3l0,0l15.3,41.3
				c1.1,2.9,2.7,4.7,4.8,5.3s5.1,0.3,9.1-1.1l0,0c0.7,0.3,1.3,1.3,1.8,2.8c0.5,1.5,0.7,2.4,0.6,2.7l0,0l-18.5,5.2l-19.7,7.7
				c-0.4-0.2-0.9-1-1.4-2.4c-0.5-1.4-0.5-2.6-0.1-3.4l0,0c4.2-1.4,7.1-3.1,8.6-4.9c1.5-1.9,1.8-4.3,0.8-7.2l0,0l-28.8-87
				c-1.8-5.4-7.1-6.6-15.8-3.6l0,0c-0.4-0.2-0.9-1-1.4-2.4s-0.5-2.6-0.1-3.4l0,0c3.9-1.7,7-3.3,9.4-4.8c2.3-1.6,4.2-3.7,5.6-6.6l0,0
				c0.3-0.6,1.1-1.1,2.5-1.5C383.6,142.3,384.7,142.1,385.4,142.3L385.4,142.3z M544.9,117l16.1,1.5l23.4-0.3
				c10.3,0.3,18.7,3,25,8.1c6.3,5.1,9.4,11.9,9.1,20.5l0,0c-0.4,12.7-8.8,21.2-25.3,25.7l0,0c9.1,0.3,16.7,3.4,22.6,9.2
				c6,5.9,8.8,13.2,8.6,22.1l0,0c-0.7,21.9-15.2,32.4-43.7,31.5l0,0l-20.1-1.6l-20,0.4c-0.3-0.3-0.5-1.3-0.4-2.9
				c0.1-1.6,0.4-2.7,1.1-3.4l0,0c4,0.1,6.9-0.5,8.6-1.8c1.8-1.3,2.7-3.5,2.8-6.5l0,0l3.6-87.3c0.1-3-0.7-5.2-2.3-6.6
				c-1.6-1.4-4.5-2.1-8.6-2.3l0,0c-0.6-0.6-0.9-1.7-0.9-3.4C544.5,118.1,544.6,117.2,544.9,117L544.9,117z M567.2,170l7.5,0.2
				c8.7,0.3,15.7-1.5,21.3-5.3c5.5-3.8,8.4-9.2,8.6-16.3l0,0c0.4-14.2-8.4-21.6-26.7-22.2l0,0c-3.6-0.1-7.3,0.1-11.4,0.6l0,0
				L567.2,170z M581.5,226L581.5,226c8.1,0.3,14.7-1.5,19.8-5.4c5.1-3.8,7.8-9.5,8-17.1c0.2-7.6-2.6-13.4-8.6-17.5
				c-6-4.1-13.4-6.3-22.1-6.6l0,0c-3.4-0.1-7.2,0.1-11.2,0.7l0,0l0.5,33c0.1,4.9,1.1,8.2,3,10C572.9,224.9,576.4,225.8,581.5,226z
				 M658.2,246.9c-5.9-1.6-10.4-4.8-13.5-9.7c-3.1-4.9-3.8-10.3-2.3-16.2c1.6-5.9,5.4-10.2,11.4-12.8c6-2.6,15.2-3.5,27.4-2.8l0,0
				L693,206l1.1-4c2-7.5,2.2-13.3,0.5-17.4c-1.6-4.1-5.4-6.9-11.3-8.4l0,0c-8.2-2.2-12.7-1.6-13.6,1.8l0,0c-0.2,0.6,0.2,1.9,1.1,3.7
				c0.9,1.8,1.1,3.5,0.7,5.2s-1.5,2.8-3.2,3.5c-1.7,0.6-3.8,0.6-6.1,0c-2.4-0.6-4.1-1.8-5.2-3.6c-1.1-1.8-1.3-3.9-0.6-6.4l0,0
				c1.4-5.5,5.3-9.3,11.6-11.4c6.3-2.1,12.5-2.4,18.7-0.7l0,0c10.1,2.7,16.7,6.7,19.9,12.1c3.2,5.4,3.8,11.6,1.9,18.7l0,0
				c-0.1,0.2-3.6,12.9-10.7,38l0,0c-1.9,6.8-0.5,10.9,4.2,12.1l0,0c1.9,0.5,4.3,0.6,7,0.1l0,0c0.4,1.5,0.5,2.8,0.2,3.9
				s-0.6,1.8-0.9,1.9l0,0c-1.4,0.8-3.5,1.3-6.5,1.7c-3,0.3-5.9,0.1-8.9-0.7l0,0c-4.6-1.2-7.7-5.1-9.3-11.8l0,0
				C675.2,248.3,666.8,249.1,658.2,246.9L658.2,246.9z M682,214.3c-8.8-0.1-14.9,0.5-18.2,1.8c-3.3,1.4-5.4,3.9-6.4,7.5
				c-1,3.6-0.8,6.8,0.6,9.5s3.4,4.5,6.2,5.3s6.2,1,10.2,0.7c4-0.3,7.6-0.8,10.7-1.7l0,0l5.7-23L682,214.3z M749,278.4l-17.6-9.6
				l-19.2-8.9c-0.1-0.4,0.1-1.3,0.8-2.7c0.7-1.3,1.5-2.2,2.4-2.5l0,0c4,2,7.2,2.9,9.6,2.7c2.4-0.2,4.3-1.7,5.7-4.5l0,0l41.9-81.6
				c2.6-5.1-0.3-9.7-8.5-13.8l0,0c-0.1-0.4,0.1-1.3,0.8-2.7c0.7-1.3,1.5-2.2,2.4-2.5l0,0c5.4,2.2,11.6,3.1,18.6,2.7l0,0
				c1,0,2,0.3,3.1,0.8c1.1,0.6,1.8,1.2,2.2,1.9l0,0l-33.9,72.9c1.5,0.8,4,0.5,7.4-0.6c3.5-1.2,6.9-2.4,10.4-3.5
				c3.5-1.2,6-2.1,7.8-2.6c1.7-0.6,3.3-1.1,4.9-1.7l0,0c2.8-1.1,4.4-2,4.7-2.7l0,0c0.6-1.1-1.2-2.6-5.1-4.6l0,0
				c-0.3-0.9-0.1-2,0.6-3.4c0.7-1.3,1.2-2.1,1.7-2.2l0,0l13.1,7.7l16.2,7.1c0.1,0.3-0.2,1.2-0.9,2.6c-0.7,1.4-1.5,2.3-2.2,2.5l0,0
				c-6.7-3.4-12.6-4.2-17.7-2.4l0,0l-31,11.6c9.2,28.7,14.5,44.4,15.9,47.2s4,5.2,7.9,7.1l0,0c0.2,0.7,0,1.8-0.7,3.3
				c-0.7,1.4-1.2,2.2-1.5,2.3l0,0l-13.5-7.6l-18-8.3c-0.1-0.4,0.1-1.3,0.8-2.7s1.5-2.2,2.4-2.5l0,0c3.1,1.6,5,1.6,5.8,0
				c0.8-1.5-1.8-12.4-7.6-32.7l0,0c-0.9-2.9-2.5-5-4.8-6.1l0,0l-9.7,21.1c-1.3,2.8-1.4,5.3-0.2,7.3c1.2,2,3.7,4,7.7,6l0,0
				c0.2,0.7,0,1.8-0.7,3.3C749.8,277.5,749.3,278.3,749,278.4L749,278.4z M851.7,335.8L851.7,335.8c-10.8,1.3-20.7-1.6-29.7-8.7
				c-9.1-7.1-13.6-15.6-13.7-25.6s3.6-19.8,11-29.2c7.4-9.5,16-15.4,25.7-17.9c9.7-2.4,18.8-0.3,27.4,6.4
				c8.5,6.7,12.5,14.6,11.9,23.8c-0.6,9.2-4.6,18.5-12,27.9l0,0l-40.8-31.9c-5.5,7.1-8.7,14.3-9.4,21.6c-0.7,7.3,1.8,13.2,7.6,17.7
				l0,0c7.9,6.2,16.1,9.4,24.6,9.7l0,0c0.1,0.5,0.1,1.5-0.1,2.9s-0.5,2.3-0.8,2.7C853.1,335.5,852.5,335.7,851.7,335.8z
				 M836.9,273.9L836.9,273.9l18.4,14.6c6.7,5.2,10.4,7.7,11.2,7.5l0,0c0.4-0.4,1.1-1.1,1.9-2.1l0,0c3.2-4.1,4.9-8.8,5.2-13.9
				c0.2-5.2-1.9-9.5-6.3-12.9c-4.4-3.5-9.4-4.5-14.8-3.2C847.1,265.1,841.9,268.4,836.9,273.9z M884.1,383.8l-12.9-15.3l-15.1-14.8
				c0-0.5,0.6-1.2,1.7-2.2c1.1-1,2.1-1.5,3.1-1.5l0,0c3,3.3,5.7,5.2,8,5.8s4.6-0.1,6.9-2.2l0,0l34.6-31.4c2.3-2.1,3.2-4.4,2.7-6.7
				c-0.5-2.4-2.2-5.2-5.3-8.6l0,0c0-0.5,0.6-1.2,1.7-2.2s2.1-1.5,3.1-1.5l0,0c0.3,0.3,1.1,1,2.4,2.1c1.3,1.1,2.1,1.8,2.5,2
				s1.1,0.8,2.1,1.6c1.1,0.7,2,1.2,2.8,1.4l0,0c2.4,0.8,4.2,1.2,5.4,1.3c1.2,0,2.3,0.6,3.2,1.7c1,1.1,1.5,2,1.7,2.8l0,0l-11.6,13
				c4.6-1.6,9.8-1.9,15.4-1c5.7,0.9,10.2,3.2,13.7,6.9l0,0c2,2.2,3,4.7,3,7.5c0,2.8-1,5.2-3,7c-2,1.9-4.1,2.8-6.4,2.7
				c-2.2,0-4.2-1-5.9-2.8l0,0c-3.6-3.9-4.1-7.2-1.3-9.7l0,0c0.7-0.7,1.6-1.1,2.5-1.2s1.5-0.3,1.8-0.5c0.2-0.2,0.1-0.6-0.4-1.2l0,0
				c-1.9-2-6.7-2.7-14.5-1.9s-13.5,2.9-17.2,6.5l0,0l-23,22.9c-2.2,2.2-3.1,4.4-2.7,6.7c0.4,2.3,2.1,5.1,5.1,8.3l0,0
				c0,0.8-0.6,1.7-1.8,2.8C885.1,383.3,884.4,383.8,884.1,383.8L884.1,383.8z M965.6,354.5l9.4,15.7l11.7,15.5
				c-0.1,0.3-0.8,0.9-2.1,1.8c-1.3,0.9-2.4,1.3-3.2,1.1l0,0c-3.4-5.1-6.2-6.8-8.4-5.4l0,0c-0.6,0.4-1.4,1.3-2.2,2.5l0,0L940.1,432
				l51.1-16c0.7-0.2,1.5-0.6,2.4-1.2l0,0c2.5-1.7,2.2-4.8-0.9-9.4l0,0c0.2-0.9,0.9-1.8,2.1-2.6c1.2-0.8,2.1-1.2,2.6-1.1l0,0l9,15.1
				l9.3,12c-0.1,0.3-0.8,0.9-2.1,1.8c-1.3,0.9-2.4,1.3-3.2,1.1l0,0c-2-2.9-3.8-4.8-5.5-5.5c-1.7-0.7-3.9-0.7-6.7,0.1l0,0L923.1,447
				c-14.4,3.9-24.7,6-31,6.3l0,0c-9.6,0.3-16.1-2.2-19.7-7.4l0,0c-2.3-3.4-3.4-7.2-3.3-11.3c0.1-4.1,2-7.5,5.6-10l0,0
				c1.9-1.3,4-1.7,6.1-1c2.2,0.6,3.9,1.9,5.2,3.8s1.8,3.8,1.5,5.6c-0.3,1.9-1.1,3.3-2.4,4.2c-1.3,0.9-2.5,1.3-3.6,1.1
				c-1-0.2-1.8-0.1-2.1,0.1l0,0c-1.2,0.8-1.2,2.1-0.1,3.8c1.2,1.7,4.7,2.5,10.6,2.5s11.6-0.8,17-2.1c5.4-1.4,11-3,16.9-5l0,0
				l38.1-64.8c1.5-2.6,2.2-4.9,2.2-6.8c0-1.9-1.1-4.5-3.2-7.6l0,0c0.2-0.9,0.9-1.8,2.1-2.6C964.3,354.8,965.1,354.4,965.6,354.5
				L965.6,354.5z"/>
		</g>
	</g>
</g>
</svg>
